<?xml version="1.0" standalone="no"?>
<!DOCTYPE svg PUBLIC "-//W3C//DTD SVG 20010904//EN"
 "http://www.w3.org/TR/2001/REC-SVG-20010904/DTD/svg10.dtd">
<svg version="1.0" xmlns="http://www.w3.org/2000/svg"
 width="1776.000000pt" height="1776.000000pt" viewBox="0 0 1776.000000 1776.000000"
 preserveAspectRatio="xMidYMid meet">
<metadata>
Created by potrace 1.14, written by Peter Selinger 2001-2017
</metadata>
<g transform="translate(0.000000,1776.000000) scale(0.100000,-0.100000)"
fill="#000000" stroke="none">
<path d="M0 17080 l0 -680 39 0 c39 0 40 1 43 37 3 36 5 37 40 38 l38 1 0
-118 c0 -98 3 -118 15 -118 19 0 19 -19 0 -26 -8 -4 -15 -18 -15 -33 0 -18
-13 -39 -38 -64 -31 -31 -45 -37 -80 -37 l-42 0 0 -1135 0 -1134 25 -26 c14
-14 32 -25 40 -25 8 0 15 -7 15 -16 0 -9 10 -24 22 -33 14 -12 23 -34 28 -68
l6 -50 -28 2 c-23 2 -28 -1 -28 -21 0 -21 -5 -24 -40 -24 l-40 0 0 -1021 0
-1021 25 -19 c14 -12 22 -26 18 -34 -3 -10 1 -15 11 -15 24 0 136 -115 136
-139 0 -11 11 -31 24 -44 18 -18 25 -38 29 -83 5 -63 42 -180 64 -202 7 -7 13
-22 13 -32 0 -10 5 -22 10 -25 6 -4 18 -24 27 -46 8 -22 25 -46 37 -54 11 -9
20 -18 18 -21 -6 -11 99 -74 123 -74 13 0 25 -5 27 -12 2 -6 31 -19 64 -29 79
-23 126 -41 142 -56 7 -7 20 -13 28 -13 9 0 30 -11 48 -25 18 -14 36 -25 39
-25 11 0 76 -74 77 -87 0 -7 4 -13 9 -13 12 0 20 -23 37 -100 16 -77 18 -120
4 -120 -5 0 -10 -18 -10 -40 0 -28 -4 -40 -15 -40 -8 0 -19 -9 -25 -19 -8 -15
-21 -19 -62 -19 -97 0 -237 -13 -295 -28 -42 -11 -106 -15 -227 -14 -96 0
-174 -4 -180 -9 -16 -13 -122 2 -161 23 l-30 16 -3 -315 c-2 -304 -2 -316 18
-337 11 -12 20 -27 20 -33 0 -7 9 -20 20 -30 11 -10 20 -23 20 -29 0 -5 14
-40 32 -76 17 -36 35 -73 40 -82 4 -10 9 -53 9 -95 1 -59 3 -71 9 -48 6 21 7
10 5 -37 -2 -49 -9 -78 -26 -105 -13 -21 -27 -40 -31 -41 -5 -2 -6 -8 -3 -12
10 -16 -25 -83 -55 -110 -16 -14 -31 -32 -32 -40 -2 -8 -10 -21 -18 -28 -13
-12 -13 -13 0 -6 12 6 13 4 2 -7 -9 -9 -12 -67 -12 -212 l0 -199 142 5 c196 7
226 12 281 41 47 26 61 35 98 68 10 10 23 18 29 18 5 0 10 4 10 9 0 14 60 71
74 71 7 0 27 16 46 35 18 18 36 33 39 32 13 -3 81 25 81 34 0 5 23 9 50 9 28
0 65 6 83 14 60 25 122 106 131 171 2 11 6 27 9 35 3 8 9 33 12 55 3 22 10 57
16 78 5 21 8 46 5 55 -3 9 -6 37 -7 62 -1 25 -7 51 -12 58 -5 6 -6 12 -3 12 4
0 1 10 -6 23 -6 12 -13 28 -14 35 -1 7 -13 27 -26 45 -13 18 -31 48 -38 67 -8
19 -20 41 -27 48 -7 7 -13 26 -13 41 0 15 -5 32 -11 38 -17 17 2 212 25 248 7
11 16 33 20 50 10 39 103 126 152 143 81 28 172 45 257 48 48 2 87 -1 87 -5 0
-5 17 -8 38 -8 22 1 63 -11 103 -31 37 -18 71 -32 77 -32 6 0 12 -4 14 -8 5
-13 133 -72 156 -72 12 0 24 -5 28 -11 5 -8 9 -8 14 1 6 9 13 9 31 -1 13 -7
35 -14 49 -16 92 -11 169 -26 194 -39 16 -8 57 -14 91 -14 40 0 67 -5 74 -13
8 -11 41 -13 146 -9 111 3 135 2 135 -10 0 -9 13 -14 40 -15 22 -1 40 3 40 8
0 6 4 7 10 4 5 -3 26 -8 46 -11 21 -2 43 -9 49 -14 14 -12 10 -90 -4 -100 -6
-3 -9 -24 -8 -47 1 -37 6 -44 34 -60 31 -17 33 -20 33 -75 0 -45 3 -58 15 -58
8 0 15 -5 15 -11 0 -19 48 -70 53 -56 3 9 9 9 28 1 13 -7 44 -19 69 -29 25 -9
56 -21 69 -27 14 -5 41 -22 62 -39 20 -16 42 -29 48 -29 6 0 16 -11 23 -24 22
-41 118 -136 145 -142 34 -9 93 -73 93 -101 0 -18 6 -23 25 -23 15 0 25 -6 25
-14 0 -16 49 -52 67 -48 6 1 14 -2 18 -8 18 -29 75 7 75 48 0 12 3 22 8 22 4
0 15 18 26 40 16 33 17 45 7 84 -6 25 -11 63 -11 85 0 33 -5 44 -30 63 -16 12
-30 25 -30 30 0 4 18 25 40 46 38 36 41 43 42 98 2 57 -18 134 -34 134 -4 0
-8 7 -8 15 0 19 -20 55 -42 76 -13 12 -18 32 -18 77 0 33 -4 63 -9 66 -8 5
-21 61 -22 96 -1 21 37 189 50 223 15 39 14 67 -4 67 -18 0 -35 31 -35 63 0
14 -7 31 -16 38 -14 11 -21 10 -46 -4 -16 -9 -37 -17 -46 -17 -40 1 -83 70
-97 152 -7 43 -24 59 -32 30 -7 -27 -43 -37 -43 -12 0 23 -45 70 -65 70 -8 0
-15 7 -15 15 0 10 -11 15 -32 16 -18 0 -40 2 -48 4 -116 26 -163 28 -243 10
-70 -16 -87 -24 -119 -57 -21 -21 -38 -48 -38 -60 0 -24 -37 -88 -51 -88 -6 0
-7 -4 -4 -10 3 -5 -1 -10 -9 -10 -9 0 -16 -7 -16 -15 0 -8 -7 -15 -16 -15 -8
0 -12 4 -9 10 9 14 -18 12 -34 -2 -11 -10 -13 -10 -7 0 5 8 -2 12 -22 12 -17
0 -32 6 -35 13 -8 20 -159 21 -236 2 -60 -16 -121 -13 -121 6 0 5 -10 9 -23 9
-13 0 -32 9 -44 19 -32 30 -103 61 -140 61 -18 0 -33 3 -33 8 0 8 -35 24 -92
42 -21 6 -38 16 -38 21 0 5 -7 9 -15 9 -8 0 -15 6 -15 14 0 8 -8 17 -18 20 -9
3 -29 17 -43 30 -15 14 -29 23 -31 20 -13 -12 -82 32 -124 79 -50 57 -73 117
-74 193 0 24 -6 47 -15 54 -8 7 -15 29 -15 49 -1 31 -8 42 -56 81 -30 25 -65
50 -77 55 -32 14 -143 104 -216 176 -9 9 -34 40 -56 69 -22 29 -48 61 -57 72
-10 10 -18 25 -18 33 0 8 -4 15 -8 15 -17 0 -92 184 -99 243 -3 20 -9 37 -13
37 -15 0 -15 217 -1 357 6 56 8 116 5 133 -4 16 -2 30 3 30 6 0 10 70 11 169
0 93 5 178 10 188 13 23 39 91 47 120 3 12 15 25 26 28 12 4 19 15 19 31 0 19
5 24 25 24 14 0 25 4 25 9 0 11 73 60 123 83 21 10 63 22 95 27 31 6 86 15
122 21 36 7 153 14 261 17 193 4 196 4 251 -21 52 -24 168 -125 168 -146 0 -5
10 -26 22 -47 31 -52 68 -202 83 -338 2 -16 8 -46 14 -65 6 -19 11 -50 11 -67
0 -23 5 -33 15 -33 8 0 15 -9 15 -20 0 -18 5 -20 41 -16 22 2 49 12 58 20 10
9 27 16 38 16 12 0 23 7 27 15 3 8 14 15 24 15 11 0 31 11 46 25 15 14 34 25
42 25 7 0 14 4 14 9 0 10 58 71 66 71 3 0 11 6 18 13 8 6 24 19 36 27 12 8 28
20 34 25 6 6 36 23 66 39 30 16 62 35 71 42 8 8 28 14 42 14 15 0 27 4 27 10
0 14 153 79 225 95 44 9 145 57 145 68 0 15 85 94 120 112 16 8 30 20 30 25 0
6 18 10 40 10 22 0 40 5 40 11 0 12 175 7 225 -6 27 -8 95 -68 95 -85 0 -4 14
-24 30 -45 17 -21 30 -46 30 -56 0 -10 4 -20 9 -24 5 -3 13 -19 16 -37 4 -17
18 -51 31 -76 13 -25 24 -53 24 -63 0 -9 5 -19 12 -21 7 -3 13 -26 14 -59 1
-30 2 -57 3 -60 1 -4 17 -22 36 -40 l34 -34 -14 -43 c-16 -46 -13 -100 11
-167 11 -31 13 -59 6 -130 -10 -97 -9 -201 1 -211 12 -12 67 30 67 52 0 12 3
29 6 38 5 14 8 14 21 1 8 -9 19 -13 24 -10 12 8 31 84 25 101 -3 8 -1 14 4 14
13 0 13 46 -1 68 -12 19 4 102 20 102 21 0 31 72 31 211 0 108 3 149 13 153
10 5 10 7 0 12 -15 7 -18 64 -3 64 6 0 10 9 10 19 0 11 5 23 10 26 5 3 10 17
10 30 0 13 4 26 9 29 4 3 11 22 14 43 3 21 13 69 22 108 8 38 15 82 15 97 0
16 5 28 10 28 6 0 10 9 10 20 0 11 5 20 10 20 6 0 10 9 10 19 0 11 4 23 10 26
6 3 10 19 10 35 0 16 5 32 10 35 6 3 10 15 10 26 0 10 3 19 8 19 10 0 81 154
105 232 16 50 14 58 -15 58 -25 0 -23 17 9 59 32 41 68 105 118 211 20 41 44
93 55 115 10 22 28 60 39 85 20 45 62 121 71 130 3 3 12 19 20 35 8 17 23 39
33 50 9 10 23 36 29 57 6 21 15 38 20 38 4 0 8 11 8 25 0 14 4 25 8 25 4 0 19
18 32 40 14 22 30 40 36 40 12 0 64 52 64 63 0 5 12 20 26 35 27 28 74 117 74
140 0 8 13 26 29 41 16 15 43 49 59 75 39 60 145 172 183 192 16 8 29 18 29
23 0 4 25 34 56 65 35 35 54 62 50 71 -4 10 1 15 14 15 13 0 20 7 21 20 1 11
3 25 4 30 1 6 3 14 4 19 0 5 15 12 32 16 17 4 40 18 51 31 12 13 25 21 30 18
4 -3 8 1 8 8 1 16 46 68 60 68 5 0 10 5 10 10 0 6 12 15 27 21 15 6 41 16 58
24 16 7 46 16 66 19 26 5 51 21 90 61 30 30 59 55 66 55 6 0 13 3 15 8 9 22
86 72 110 72 16 0 28 5 28 10 0 6 14 10 31 10 17 0 28 4 24 10 -3 6 3 10 14
10 10 0 21 3 23 8 2 4 34 23 71 42 37 19 75 43 84 53 9 9 22 17 30 17 7 0 13
5 13 10 0 6 9 10 19 10 11 0 23 5 26 10 3 6 15 10 26 10 10 0 19 5 19 10 0 6
6 10 14 10 17 0 100 42 104 53 2 4 9 7 16 7 6 0 27 13 46 30 19 16 41 29 48
30 6 0 12 5 12 10 0 6 5 10 12 10 6 0 28 18 49 40 21 22 43 40 49 40 5 0 10 4
10 9 0 5 14 14 30 21 26 11 33 10 49 -5 12 -10 32 -16 53 -14 45 4 48 -12 7
-34 -19 -10 -45 -30 -59 -44 l-25 -25 60 5 c37 3 75 13 98 27 35 21 46 22 125
16 68 -5 93 -3 116 9 33 17 49 19 74 6 61 -31 153 -51 209 -45 57 6 123 30
123 43 0 12 56 71 67 71 5 0 30 13 54 30 26 18 57 30 77 30 17 0 32 5 32 10 0
6 16 10 35 10 24 0 38 5 42 17 9 23 -65 85 -119 100 -76 20 -123 41 -126 57
-5 24 46 32 81 13 16 -10 37 -17 46 -17 10 0 34 -13 52 -30 19 -16 38 -30 42
-30 15 0 80 -33 98 -50 10 -8 24 -21 33 -27 18 -15 133 -18 138 -3 4 13 768
16 777 3 3 -5 22 -16 41 -25 19 -9 46 -29 60 -43 14 -15 57 -43 95 -62 39 -18
99 -54 135 -79 36 -25 77 -48 91 -51 15 -3 46 -25 70 -49 24 -24 47 -44 52
-44 5 0 14 -6 21 -12 7 -7 28 -24 46 -38 38 -28 140 -108 154 -121 5 -5 10
-16 11 -26 2 -32 34 -69 95 -109 33 -21 60 -42 60 -46 0 -5 11 -8 25 -8 14 0
25 -4 25 -10 0 -5 7 -10 15 -10 8 0 15 -3 15 -7 0 -5 24 -19 53 -33 28 -14 54
-27 57 -30 3 -3 22 -18 42 -33 21 -15 44 -42 53 -60 13 -28 148 -137 169 -137
4 0 26 -13 49 -28 23 -15 54 -34 70 -41 15 -8 27 -18 27 -23 0 -4 9 -8 20 -8
11 0 20 -4 20 -10 0 -5 11 -10 23 -10 22 0 57 -27 57 -43 0 -13 -31 -7 -72 13
-76 37 -68 7 23 -83 46 -46 96 -91 111 -100 16 -10 34 -32 42 -50 18 -40 71
-97 90 -97 8 0 16 -3 18 -7 4 -11 109 -104 143 -128 50 -35 75 -67 69 -91 -4
-15 3 -30 22 -50 14 -16 33 -45 41 -64 32 -80 41 -94 105 -161 20 -21 44 -39
52 -39 9 0 16 -4 16 -10 0 -5 7 -10 16 -10 37 0 89 -94 79 -142 -5 -19 1 -45
17 -80 13 -29 32 -79 43 -110 11 -32 22 -58 25 -58 14 0 29 68 23 107 -3 23
-3 50 1 59 5 13 12 10 36 -21 17 -21 30 -43 30 -49 0 -6 9 -28 20 -49 11 -20
20 -40 20 -44 -2 -62 46 -153 81 -153 17 0 75 -60 71 -73 -2 -6 4 -24 12 -41
27 -58 25 -71 -12 -71 -19 -1 -36 3 -38 7 -25 40 -33 -59 -9 -106 8 -16 19
-52 25 -80 16 -91 22 -110 41 -153 10 -24 19 -54 19 -68 0 -14 6 -28 14 -31 8
-3 17 -16 20 -30 4 -13 11 -24 16 -24 6 0 10 -11 10 -24 0 -34 10 -56 26 -56
7 0 24 -11 38 -25 14 -14 27 -25 30 -25 2 0 8 15 12 32 6 31 20 50 70 102 11
11 23 29 27 38 4 10 12 15 21 12 22 -9 27 -45 9 -78 -9 -17 -20 -39 -25 -50
-24 -47 -61 -177 -65 -231 -5 -52 -2 -63 16 -79 19 -17 22 -18 45 -2 23 15 25
15 31 -4 3 -11 13 -27 22 -35 19 -20 36 -146 23 -180 -11 -29 -3 -80 18 -115
21 -34 103 -110 119 -110 7 0 13 -4 13 -10 0 -5 12 -10 26 -10 15 0 42 -10 61
-21 26 -16 37 -19 46 -10 19 19 37 12 37 -13 0 -14 4 -28 10 -31 13 -8 13 -45
0 -45 -6 0 -10 -6 -9 -12 3 -28 -2 -36 -31 -40 -32 -5 -117 37 -169 85 -17 15
-42 27 -57 27 -22 0 -24 -3 -18 -22 10 -33 75 -137 106 -170 36 -39 68 -38 68
2 0 17 -4 30 -10 30 -5 0 -10 9 -10 19 0 15 6 19 26 16 41 -4 108 -89 117
-148 9 -61 37 -77 130 -74 75 2 78 1 95 -25 15 -26 15 -29 0 -44 -9 -9 -37
-20 -63 -25 -59 -11 -75 -24 -75 -60 0 -22 -6 -30 -25 -35 -31 -8 -34 -43 -5
-69 24 -21 26 -60 5 -81 -30 -31 -12 -114 25 -114 10 0 22 -4 25 -10 3 -5 16
-10 28 -10 21 0 77 -46 77 -63 0 -5 11 -18 25 -29 14 -11 35 -36 46 -56 11
-21 32 -57 46 -82 33 -59 41 -136 19 -178 -18 -35 -13 -77 10 -86 16 -6 18
-34 4 -56 -7 -12 -12 -12 -22 -2 -21 21 -28 14 -28 -28 0 -22 4 -40 9 -40 19
0 91 -76 93 -99 3 -20 -3 -26 -37 -35 -22 -7 -41 -18 -41 -26 -1 -8 -2 -21 -3
-27 0 -7 -14 -13 -31 -13 -35 0 -62 -34 -54 -67 7 -24 99 -87 114 -78 6 4 10
14 9 23 -6 68 21 87 73 50 45 -32 46 -34 34 -78 -9 -35 -8 -42 13 -64 21 -23
22 -28 12 -55 -7 -16 -23 -39 -37 -52 -27 -25 -31 -51 -11 -71 17 -17 47 -82
47 -101 0 -29 39 -107 53 -107 15 0 31 -32 43 -85 14 -57 43 -111 79 -143 21
-20 35 -42 35 -56 0 -28 16 -36 71 -36 34 0 39 -3 44 -27 14 -66 26 -103 35
-103 6 0 10 -9 10 -19 0 -43 39 -87 105 -119 35 -18 71 -32 79 -32 22 0 70
-67 78 -108 15 -78 11 -90 -27 -98 -19 -3 -35 -8 -35 -11 0 -27 93 -108 111
-97 5 3 9 0 9 -5 0 -6 7 -19 14 -28 8 -10 24 -29 34 -42 15 -19 33 -26 83 -33
82 -10 110 -14 151 -24 18 -4 38 -8 43 -9 22 -3 75 -30 75 -37 0 -4 7 -8 15
-8 27 0 15 -27 -19 -44 -19 -9 -40 -16 -48 -16 -8 0 -18 -3 -22 -7 -3 -4 -12
-8 -19 -9 -40 -8 -113 -25 -187 -44 -74 -18 -88 -25 -103 -51 -9 -17 -17 -39
-17 -50 0 -10 -5 -19 -10 -19 -18 0 -70 -43 -70 -57 0 -7 -4 -13 -9 -13 -15 0
-41 -90 -41 -139 0 -28 8 -59 20 -79 17 -28 25 -32 64 -32 35 0 45 4 49 20 3
12 14 20 27 20 13 0 24 -8 27 -20 3 -11 9 -20 14 -20 5 0 9 -8 9 -17 0 -10 7
-27 15 -37 20 -26 19 -88 -2 -123 -17 -30 -63 -63 -89 -63 -8 0 -22 -16 -31
-35 -13 -28 -15 -43 -6 -79 9 -40 7 -50 -18 -102 -25 -51 -27 -59 -15 -83 18
-33 40 -52 96 -82 25 -13 51 -29 58 -36 7 -7 26 -20 42 -30 17 -9 30 -21 30
-25 0 -4 6 -8 13 -8 11 0 37 -51 36 -73 0 -4 7 -20 15 -35 12 -24 30 -108 38
-182 2 -14 6 -27 9 -30 3 -3 11 -41 16 -85 6 -44 19 -103 30 -130 18 -47 19
-53 4 -75 -9 -14 -20 -28 -25 -31 -13 -10 -1 -119 18 -159 24 -51 36 -69 81
-118 46 -50 56 -78 54 -147 -3 -105 0 -135 16 -135 8 0 15 -7 15 -15 0 -18 47
-65 65 -65 8 0 15 -4 15 -9 0 -5 8 -11 18 -15 9 -3 24 -9 32 -14 41 -24 83
-42 96 -42 8 0 14 -3 14 -8 0 -4 17 -16 38 -27 20 -11 41 -25 45 -32 4 -7 18
-13 31 -13 44 0 246 -199 246 -243 0 -10 13 -26 30 -35 16 -9 30 -23 30 -29 0
-7 5 -13 10 -13 6 0 10 -6 10 -13 0 -6 13 -24 28 -39 15 -14 36 -44 47 -67 10
-23 24 -41 32 -41 24 0 15 -74 -16 -134 -21 -40 -31 -51 -35 -38 -3 9 -3 -2 0
-25 4 -28 2 -43 -5 -43 -6 0 -11 -18 -11 -40 0 -51 -44 -197 -73 -245 -33 -55
-50 -75 -68 -80 -10 -4 -19 -11 -19 -17 0 -14 -246 -258 -260 -258 -7 0 -24
-8 -38 -19 -15 -10 -44 -24 -64 -32 -21 -7 -38 -17 -38 -21 0 -4 -11 -8 -24
-8 -14 0 -57 -13 -98 -29 -57 -23 -76 -36 -87 -60 -8 -17 -18 -31 -23 -31 -4
0 -8 -13 -8 -28 0 -16 -9 -37 -19 -46 -11 -10 -25 -39 -31 -66 -16 -68 2 -122
58 -174 61 -57 87 -71 165 -91 37 -10 67 -22 67 -26 0 -5 18 -9 40 -9 22 0 40
-4 40 -9 0 -4 21 -14 48 -21 48 -13 130 -62 146 -88 4 -8 17 -23 27 -33 11
-11 17 -19 15 -19 -3 0 4 -30 15 -67 11 -38 24 -88 30 -113 5 -25 17 -55 25
-67 7 -12 14 -29 14 -38 0 -8 8 -24 17 -34 10 -10 45 -52 78 -92 33 -40 70
-81 83 -93 12 -11 22 -24 22 -30 0 -6 16 -24 35 -40 19 -16 35 -33 35 -38 0
-5 15 -25 33 -45 17 -20 37 -41 42 -47 6 -6 19 -27 29 -46 11 -19 32 -50 48
-68 15 -18 28 -37 28 -42 0 -6 7 -10 15 -10 8 0 15 -9 15 -20 0 -10 6 -23 14
-27 7 -4 19 -25 25 -45 7 -21 23 -46 37 -57 13 -10 31 -35 39 -54 8 -20 27
-48 42 -63 15 -15 36 -44 46 -63 11 -20 27 -45 36 -56 10 -11 28 -37 40 -57
13 -21 27 -38 32 -38 5 0 9 -8 9 -18 0 -9 10 -28 23 -42 13 -14 26 -33 30 -43
3 -9 11 -17 17 -17 5 0 10 -9 10 -20 0 -11 6 -20 14 -20 8 0 18 -9 21 -20 3
-11 11 -20 16 -20 5 0 9 -9 9 -20 0 -11 5 -20 10 -20 6 0 10 -6 10 -14 0 -8 7
-16 15 -19 8 -4 25 -23 39 -44 13 -21 36 -50 50 -65 14 -15 26 -30 26 -34 0
-7 52 -64 103 -112 15 -15 27 -32 27 -38 0 -7 14 -24 30 -37 17 -14 30 -29 30
-34 0 -5 36 -44 80 -88 44 -44 80 -82 80 -86 0 -3 23 -30 51 -60 28 -30 55
-66 61 -81 5 -15 25 -39 44 -53 19 -14 32 -30 29 -35 -6 -9 17 -62 38 -88 7
-9 12 -10 17 -1 5 6 15 -5 26 -29 11 -22 27 -43 37 -45 9 -3 17 -14 17 -24 0
-10 6 -25 12 -31 10 -10 10 -15 -1 -21 -11 -7 -6 -16 20 -41 23 -21 30 -33 21
-37 -9 -3 -1 -17 23 -44 34 -38 35 -42 35 -119 0 -44 -4 -80 -10 -80 -5 0 -11
-37 -13 -82 l-3 -83 -2 83 -2 82 -40 0 -40 0 0 -120 0 -120 -55 0 -55 0 0 -40
c0 -29 4 -40 15 -40 13 0 15 -20 15 -120 l0 -120 560 0 560 0 0 8880 0 8880
-8880 0 -8880 0 0 -680z m1740 -480 c0 -22 5 -40 10 -40 6 0 10 15 10 33 1 30
2 31 15 14 7 -11 11 -25 8 -33 -3 -8 1 -14 11 -14 12 0 16 -10 16 -40 0 -28 4
-40 14 -40 8 0 17 -11 20 -25 4 -14 10 -25 15 -25 5 0 12 -13 16 -29 3 -16 15
-37 26 -47 10 -9 19 -28 19 -41 0 -13 4 -22 10 -18 10 6 43 -49 34 -58 -3 -3
15 -17 40 -32 25 -15 46 -30 46 -34 0 -29 270 -48 319 -22 11 6 56 11 100 11
44 0 91 4 104 9 30 12 147 19 531 31 261 8 325 8 410 -5 55 -8 105 -20 110
-25 6 -6 19 -10 30 -10 10 0 34 -11 51 -24 18 -14 43 -28 56 -31 38 -10 81
-110 78 -185 -1 -32 -6 -57 -11 -54 -4 3 -8 -4 -8 -14 0 -33 -39 -109 -70
-139 -17 -15 -30 -32 -30 -37 0 -5 -9 -29 -20 -52 l-21 -42 31 -31 c18 -17 36
-31 41 -31 5 0 9 -4 9 -10 0 -10 47 -26 68 -22 6 2 12 -2 12 -8 0 -5 7 -10 15
-10 9 0 18 -7 21 -15 4 -8 11 -15 18 -16 20 -1 106 -111 106 -136 0 -15 6 -23
16 -23 26 0 13 -100 -17 -134 -12 -14 -26 -26 -30 -26 -13 0 -71 -63 -74 -81
-2 -10 -13 -27 -24 -38 -11 -11 -23 -33 -26 -48 -4 -16 -13 -40 -20 -54 -14
-25 -20 -56 -29 -144 -3 -22 -8 -61 -12 -87 -5 -38 -3 -52 14 -75 19 -27 25
-29 77 -26 31 1 71 7 90 12 26 7 35 6 39 -5 3 -8 14 -14 25 -14 10 0 25 -10
33 -22 26 -40 58 -138 58 -176 0 -32 -5 -41 -32 -57 -33 -19 -128 -109 -128
-121 0 -4 -27 -32 -60 -63 -33 -31 -60 -62 -60 -69 0 -7 -7 -15 -15 -18 -8 -4
-12 -10 -9 -15 3 -5 -2 -12 -11 -15 -12 -5 -14 -16 -9 -58 4 -28 12 -58 19
-66 7 -8 16 -32 19 -53 4 -21 11 -35 16 -32 5 3 15 -3 22 -15 7 -11 21 -20 30
-20 10 0 18 -4 18 -9 0 -5 18 -17 40 -27 22 -10 40 -24 40 -31 0 -7 6 -13 13
-13 8 0 22 -9 32 -20 10 -11 25 -20 34 -20 9 0 24 -9 34 -20 9 -11 24 -20 32
-20 8 0 15 -9 15 -20 0 -11 7 -20 15 -20 16 0 39 -35 41 -65 2 -41 4 -46 14
-40 14 8 13 -18 -1 -32 -7 -7 -8 -17 -1 -29 5 -11 15 -50 22 -87 14 -77 5
-100 -25 -67 -10 11 -28 20 -39 20 -27 0 -66 -27 -66 -46 0 -8 -7 -14 -15 -14
-8 0 -15 -6 -15 -14 0 -8 -20 -24 -45 -36 -25 -12 -45 -28 -45 -35 0 -8 -27
-24 -60 -36 -33 -12 -60 -26 -60 -30 0 -5 -7 -9 -16 -9 -9 0 -18 -9 -21 -20
-3 -11 -9 -20 -14 -20 -5 0 -24 -16 -43 -35 -20 -19 -40 -35 -46 -35 -6 0 -31
-9 -55 -20 -25 -11 -72 -23 -105 -27 -53 -5 -60 -4 -60 12 0 13 -6 16 -26 12
-28 -5 -173 28 -188 44 -6 5 -22 9 -36 9 -14 0 -31 5 -37 11 -8 8 -46 8 -134
0 -67 -6 -128 -7 -133 -2 -6 5 -32 11 -58 13 -26 3 -72 17 -101 32 -30 14 -59
26 -66 26 -7 0 -18 6 -26 13 -7 6 -22 20 -34 30 -12 10 -19 22 -16 27 3 6 -1
10 -9 10 -9 0 -16 6 -16 14 0 7 -7 20 -16 27 -19 16 -64 114 -64 140 0 11 -3
19 -7 19 -5 0 -13 11 -19 23 -13 29 -6 97 10 97 6 0 22 14 36 31 14 17 33 40
43 51 9 12 17 26 17 33 0 6 9 21 20 33 23 25 24 92 2 92 -8 0 -16 9 -19 19 -4
16 -51 37 -75 32 -5 0 -8 6 -8 15 0 11 -5 14 -16 10 -9 -4 -22 -2 -29 4 -7 6
-17 10 -21 9 -5 -1 -22 3 -37 9 -16 7 -31 12 -35 12 -4 0 -19 11 -34 25 -15
14 -31 25 -36 25 -4 0 -31 25 -58 56 -27 30 -60 67 -74 82 -14 15 -27 38 -28
52 -2 14 -8 30 -13 36 -5 6 -6 14 -2 18 4 4 2 11 -5 15 -7 4 -13 24 -14 44 -1
21 -6 37 -13 37 -12 0 -35 42 -35 64 0 7 -9 25 -20 38 -10 14 -16 29 -12 33 4
5 2 5 -5 2 -6 -4 -25 4 -41 18 -21 18 -32 21 -35 13 -2 -8 -16 0 -36 21 -24
26 -35 31 -41 22 -5 -9 -10 -10 -14 -2 -4 6 -18 11 -32 11 -34 0 -96 58 -88
82 3 11 0 20 -10 24 -9 3 -16 10 -16 15 0 11 -12 28 -52 71 -16 16 -28 34 -28
39 0 5 -7 9 -15 9 -9 0 -19 10 -24 23 -29 72 -34 81 -38 69 -4 -10 -11 -5 -23
13 -10 16 -16 33 -14 40 3 6 -7 28 -21 49 -29 43 -30 46 -10 46 12 0 15 15 16
73 1 77 25 269 29 227 2 -24 2 -24 11 5 6 17 12 62 15 102 5 69 4 73 -26 106
-40 47 -164 111 -196 103 -17 -5 -24 -2 -24 9 0 11 -11 15 -40 15 -22 0 -40
-4 -40 -10 0 -5 -9 -10 -20 -10 -11 0 -20 -5 -20 -11 0 -8 -18 -10 -57 -6 -35
3 -50 2 -38 -3 19 -8 19 -9 -2 -9 -14 -1 -23 -7 -23 -16 0 -10 -10 -15 -28
-15 -15 0 -33 -5 -40 -12 -9 -9 -12 -8 -12 6 0 14 -10 8 -40 -23 -22 -22 -40
-47 -40 -54 0 -8 -20 -35 -45 -62 -56 -59 -72 -85 -51 -85 8 0 17 6 19 13 3 7
6 5 6 -5 1 -12 -6 -18 -19 -18 -17 0 -20 -7 -20 -40 0 -30 -7 -47 -25 -66 -14
-14 -25 -29 -25 -35 0 -16 -62 -79 -77 -79 -19 0 -43 25 -43 44 0 9 -8 16 -20
16 -16 0 -20 -7 -20 -32 0 -24 9 -39 40 -65 22 -19 40 -41 40 -49 0 -21 -31
-17 -37 5 -3 11 -14 21 -24 24 -18 5 -19 0 -16 -56 3 -34 2 -45 0 -24 -2 22
-9 37 -18 37 -9 0 -15 18 -18 53 -3 28 -8 66 -12 82 -5 23 -4 26 4 15 8 -11
11 -2 11 38 0 28 -4 52 -10 52 -5 0 -10 18 -10 40 0 33 -3 40 -20 40 -17 0
-20 7 -20 40 0 22 -4 40 -10 40 -5 0 -10 5 -10 10 0 6 7 10 15 10 10 0 15 10
15 30 0 20 -5 30 -15 30 -11 0 -15 11 -15 40 0 22 -4 40 -9 40 -6 0 -10 52
-10 118 -1 111 1 120 22 139 12 11 30 23 40 26 9 4 20 15 24 24 3 10 13 26 21
36 12 14 17 15 24 5 6 -10 16 -5 38 20 25 27 37 32 75 32 41 0 45 2 45 25 0
22 4 25 38 25 27 0 48 8 68 26 16 14 53 37 83 51 32 15 49 28 42 33 -17 10 4
24 56 38 30 9 47 22 62 47 11 20 27 38 36 41 8 4 15 12 15 20 0 8 4 14 10 14
17 0 92 85 107 123 14 34 23 42 46 38 4 -1 19 22 32 51 16 34 42 67 74 93 27
22 50 45 50 52 1 6 19 26 41 43 22 17 40 38 40 46 0 10 12 14 40 14 22 0 40 5
40 10 0 6 14 10 30 10 28 0 30 -2 30 -40z m6841 -171 c13 -11 24 -28 24 -37 0
-11 9 -17 23 -18 23 -1 39 -10 31 -18 -2 -2 -45 -7 -94 -11 -50 -3 -103 -10
-120 -15 -16 -5 -64 -14 -105 -19 -41 -6 -104 -16 -140 -21 -123 -20 -173 -23
-168 -8 4 13 25 25 78 46 46 19 65 24 144 38 44 7 84 18 90 24 5 5 22 10 37
10 15 0 33 7 40 16 32 39 122 46 160 13z m-661 -174 c0 -20 -34 -39 -110 -59
-36 -10 -75 -22 -88 -27 -34 -13 -42 -11 -42 10 0 25 60 53 125 59 28 3 54 11
58 18 11 19 57 18 57 -1z m553 -32 c-7 -2 -21 -2 -30 0 -10 3 -4 5 12 5 17 0
24 -2 18 -5z m-633 -258 c0 -9 -6 -12 -16 -8 -13 5 -13 7 -2 14 17 11 18 11
18 -6z m-7020 -55 c0 -5 -4 -10 -10 -10 -5 0 -10 5 -10 10 0 6 5 10 10 10 6 0
10 -4 10 -10z m170 -540 c0 -5 -4 -10 -10 -10 -5 0 -10 5 -10 10 0 6 5 10 10
10 6 0 10 -4 10 -10z m-178 -352 c-7 -7 -12 -8 -12 -2 0 14 12 26 19 19 2 -3
-1 -11 -7 -17z m269 -604 c8 -8 31 -14 50 -14 20 0 55 -10 79 -21 24 -12 56
-21 70 -21 14 0 39 -9 56 -19 35 -21 48 -24 39 -9 -4 6 8 10 29 10 20 0 36 -4
36 -10 0 -5 7 -10 15 -10 9 0 27 -7 40 -16 14 -9 25 -12 25 -6 0 5 16 2 36 -8
20 -10 42 -16 50 -13 7 3 29 -4 47 -16 19 -12 42 -21 51 -21 16 0 25 -7 80
-56 15 -13 38 -24 52 -24 30 0 70 -43 80 -85 4 -16 14 -35 24 -42 9 -7 23 -26
30 -43 7 -16 16 -30 21 -30 5 0 9 -8 9 -19 0 -10 7 -35 16 -56 14 -35 22 -46
52 -80 6 -7 12 -20 12 -29 0 -8 11 -28 25 -44 14 -17 25 -34 25 -40 0 -5 7
-12 15 -16 8 -3 15 -12 15 -21 0 -8 5 -15 10 -15 6 0 10 -9 10 -20 0 -12 7
-20 16 -20 11 0 14 -5 10 -16 -3 -8 -1 -36 4 -60 12 -53 3 -139 -16 -159 -8
-7 -14 -20 -14 -27 -1 -22 -73 -98 -97 -101 -12 -2 -31 -11 -41 -20 -10 -9
-30 -17 -45 -17 -14 0 -51 -6 -81 -14 -30 -8 -99 -18 -153 -21 -81 -6 -105 -4
-130 8 -17 9 -33 13 -37 10 -3 -4 -6 -1 -6 5 0 7 -5 12 -10 12 -14 0 -150 90
-150 98 0 4 -14 13 -31 21 -17 8 -43 26 -58 41 -14 15 -43 35 -63 43 -21 9
-38 21 -38 26 0 6 -7 11 -15 11 -7 0 -18 6 -22 13 -4 8 -15 17 -23 20 -25 11
-52 31 -77 54 -13 12 -38 29 -55 38 -32 14 -131 104 -173 156 -29 35 -75 129
-75 152 0 11 -6 28 -14 36 -22 26 -35 120 -27 196 5 39 4 73 -1 76 -5 3 -6 36
-2 72 6 57 10 67 26 67 17 0 19 5 13 40 -4 22 -3 40 2 39 4 -1 25 -1 46 0 30
1 37 5 37 22 0 20 3 20 93 14 55 -5 98 -13 108 -21z m11239 -1149 c0 -8 4 -15
8 -15 5 0 16 -16 25 -35 9 -19 23 -35 32 -35 8 0 15 -7 15 -15 0 -11 -5 -12
-26 -5 -14 6 -48 10 -76 10 -27 0 -65 7 -84 15 -19 8 -50 22 -69 30 -65 29
-40 45 71 45 43 0 74 4 74 10 0 6 7 10 15 10 8 0 15 -7 15 -15z m15 -334 c20
-11 31 -27 33 -45 5 -38 -9 -49 -51 -41 -27 5 -38 14 -44 33 -5 15 -8 33 -7
40 1 6 2 21 3 32 1 17 4 19 19 10 9 -6 31 -19 47 -29z m231 -233 c6 -13 9 -17
7 -10 -5 23 6 12 22 -21 19 -41 9 -76 -28 -96 -21 -11 -28 -11 -52 5 -15 9
-31 28 -36 42 -8 20 -4 28 21 52 16 15 30 33 30 39 0 20 26 12 36 -11z m254
-978 c0 -5 -4 -10 -10 -10 -5 0 -10 5 -10 10 0 6 5 10 10 10 6 0 10 -4 10 -10z
m459 -1559 c-15 -5 -22 6 -14 19 6 9 10 9 16 -1 5 -8 4 -15 -2 -18z m472 -167
c18 -11 8 -34 -17 -40 -25 -6 -132 0 -140 9 -11 11 11 36 34 40 31 6 109 0
123 -9z m-10081 -904 c0 -9 -9 -25 -21 -36 -17 -16 -22 -16 -30 -4 -8 14 -3
63 8 83 7 12 43 -24 43 -43z"/>
<path d="M640 15750 c0 -5 5 -10 10 -10 6 0 10 5 10 10 0 6 -4 10 -10 10 -5 0
-10 -4 -10 -10z"/>
<path d="M720 15055 c0 -8 9 -15 20 -15 11 0 20 7 20 15 0 8 -9 15 -20 15 -11
0 -20 -7 -20 -15z"/>
<path d="M2020 14362 c0 -12 19 -26 26 -19 2 2 -2 10 -11 17 -9 8 -15 8 -15 2z"/>
<path d="M7024 14194 c-19 -20 -32 -40 -29 -45 8 -13 59 -11 72 2 6 6 27 11
47 11 20 0 34 3 31 8 -2 4 18 10 45 14 34 5 50 11 50 21 0 17 -9 19 -30 5 -9
-5 -19 -5 -27 2 -7 6 -29 8 -48 5 -19 -3 -37 -1 -40 4 -12 18 -38 8 -71 -27z"/>
<path d="M6887 14164 c-13 -13 -7 -24 14 -24 11 0 19 5 17 12 -5 14 -22 21
-31 12z"/>
<path d="M6785 14148 c-27 -15 -44 -39 -45 -60 0 -25 31 -23 66 4 50 39 52 42
38 56 -16 15 -33 15 -59 0z"/>
<path d="M6653 14083 c-7 -2 -13 -13 -13 -24 0 -13 5 -17 18 -12 28 11 44 44
20 42 -7 0 -19 -3 -25 -6z"/>
<path d="M6523 14026 c-13 -6 -23 -14 -23 -18 0 -5 -9 -8 -20 -8 -11 0 -20 -4
-20 -10 0 -5 -4 -10 -9 -10 -5 0 -7 9 -4 20 4 14 0 20 -11 20 -9 0 -16 -6 -16
-13 0 -7 -9 -31 -19 -53 -17 -35 -18 -40 -4 -48 11 -6 19 -4 25 7 4 9 44 33
88 54 44 21 80 44 80 51 0 6 -4 12 -9 12 -5 0 -15 2 -23 4 -7 2 -23 -2 -35 -8z"/>
<path d="M5517 13963 c-15 -20 -25 -39 -22 -41 6 -7 53 37 66 61 18 32 -15 18
-44 -20z"/>
<path d="M6309 13951 c-17 -17 -35 -31 -40 -31 -5 0 -9 -9 -9 -20 0 -11 -4
-20 -8 -20 -18 0 -44 -62 -38 -91 3 -16 1 -29 -4 -29 -6 0 -10 7 -10 15 0 8
-4 15 -10 15 -15 0 -12 44 5 66 18 23 19 37 3 32 -6 -2 -17 -22 -24 -44 -6
-21 -12 -31 -13 -21 -1 20 -5 21 -31 7 -23 -13 -40 -42 -45 -78 -2 -15 -8 -56
-14 -92 -7 -42 -7 -66 -1 -68 17 -6 11 -26 -10 -40 -20 -12 -28 -52 -10 -52 6
0 10 -18 10 -39 0 -22 3 -42 8 -45 15 -9 47 20 47 44 0 35 39 46 88 26 29 -13
37 -22 37 -41 0 -22 -4 -25 -35 -25 -62 0 -111 -40 -93 -75 15 -27 30 -36 52
-29 24 8 67 50 59 58 -4 3 1 6 9 6 9 0 21 7 28 15 7 8 18 15 24 14 49 -6 82
15 104 64 8 19 19 27 36 27 39 0 114 39 101 52 -2 2 16 10 40 17 25 7 45 16
45 20 0 16 -61 31 -126 31 -67 0 -75 -2 -102 -30 -36 -36 -55 -39 -47 -7 4 16
-1 29 -19 46 -25 24 -26 24 -46 6 -23 -21 -36 -14 -24 12 8 18 11 29 13 49 0
6 12 23 26 39 14 15 29 40 32 56 7 36 23 38 23 4 0 -23 2 -24 20 -13 11 7 20
20 20 30 0 9 6 18 13 21 9 3 9 8 1 16 -9 10 -15 8 -28 -5 -24 -23 -32 -10 -18
29 15 41 16 94 2 102 -6 4 -24 -7 -41 -24z"/>
<path d="M6439 13877 c-10 -7 -18 -33 -21 -64 -6 -61 4 -67 52 -31 29 21 41
58 20 58 -5 0 -10 -5 -10 -11 0 -5 -5 -7 -10 -4 -8 5 -7 11 1 21 11 14 6 44
-8 44 -4 0 -15 -6 -24 -13z"/>
<path d="M10350 13849 c0 -22 13 -47 42 -83 24 -28 45 -53 48 -56 3 -3 20 -24
39 -47 32 -42 71 -58 71 -29 0 7 -11 24 -24 37 -13 13 -44 56 -71 94 -51 76
-84 115 -97 115 -4 0 -8 -14 -8 -31z"/>
<path d="M6592 13788 c-22 -22 -13 -28 44 -28 56 0 94 12 94 30 0 14 -124 12
-138 -2z"/>
<path d="M6505 13729 c-4 -6 -4 -13 -1 -16 8 -8 36 5 36 17 0 13 -27 13 -35
-1z"/>
<path d="M6413 13703 c-20 -7 -15 -23 7 -23 11 0 20 4 20 9 0 13 -12 19 -27
14z"/>
<path d="M6670 13630 c0 -5 9 -10 21 -10 11 0 17 5 14 10 -3 6 -13 10 -21 10
-8 0 -14 -4 -14 -10z"/>
<path d="M10551 13578 c7 -13 15 -30 19 -38 8 -17 42 -20 47 -4 6 17 -37 64
-58 64 -17 0 -18 -3 -8 -22z"/>
<path d="M10617 13493 c-24 -24 4 -72 73 -123 19 -14 42 -33 52 -42 10 -10 23
-18 28 -18 16 0 12 40 -5 46 -8 3 -25 22 -37 42 -24 41 -82 102 -96 102 -5 0
-12 -3 -15 -7z"/>
<path d="M5092 13428 c-7 -7 -12 -20 -12 -30 0 -10 -9 -27 -20 -38 -11 -11
-20 -23 -20 -27 0 -5 -16 -26 -36 -48 -20 -22 -40 -50 -45 -63 -5 -12 -17 -25
-26 -29 -27 -9 -53 -34 -53 -51 0 -7 -13 -27 -30 -42 -16 -15 -30 -33 -30 -39
0 -6 -5 -21 -12 -34 -24 -47 -28 -57 -28 -72 0 -8 -4 -15 -10 -15 -5 0 -10 -9
-10 -19 0 -11 -4 -23 -10 -26 -5 -3 -10 -19 -10 -35 0 -16 -4 -32 -10 -35 -15
-9 -12 -58 6 -83 8 -12 26 -22 39 -22 13 0 27 -4 30 -10 22 -36 75 27 75 90 0
16 5 32 10 35 6 3 10 13 10 21 0 8 14 33 30 56 17 22 30 49 30 60 0 10 5 18
10 18 6 0 10 11 10 25 0 14 5 25 10 25 6 0 10 9 10 19 0 11 5 23 10 26 13 8
13 48 -1 62 -14 14 -3 33 17 33 8 0 12 5 9 10 -3 6 0 10 7 10 15 0 33 38 47
99 5 24 14 48 20 54 13 13 15 87 3 87 -4 0 -13 -5 -20 -12z m-132 -272 c0 -18
-30 -30 -43 -17 -5 5 -6 14 -3 20 10 16 46 13 46 -3z"/>
<path d="M10300 13415 c12 -13 27 -22 32 -19 12 7 0 24 -18 24 -8 0 -14 5 -14
10 0 6 -5 10 -12 10 -6 0 -1 -11 12 -25z"/>
<path d="M5920 13393 c0 -22 2 -25 10 -13 13 20 13 40 0 40 -5 0 -10 -12 -10
-27z"/>
<path d="M5920 13344 c0 -8 5 -12 10 -9 6 3 10 10 10 16 0 5 -4 9 -10 9 -5 0
-10 -7 -10 -16z"/>
<path d="M10360 13345 c0 -17 93 -100 98 -87 5 17 -27 71 -51 84 -31 17 -47
18 -47 3z"/>
<path d="M5940 13211 c0 -28 7 -48 21 -62 l20 -20 -3 58 c-2 46 -7 59 -20 61
-15 3 -18 -4 -18 -37z"/>
<path d="M5835 13109 c-11 -17 5 -79 20 -79 22 0 24 12 12 53 -12 38 -21 45
-32 26z"/>
<path d="M10876 13073 c15 -43 35 -82 64 -118 17 -21 38 -53 46 -71 8 -17 24
-41 34 -52 11 -12 20 -24 20 -28 0 -3 8 -18 18 -32 19 -28 48 -139 38 -149 -2
-3 -19 5 -36 17 -28 20 -34 21 -57 9 -14 -8 -28 -20 -30 -27 -6 -15 34 -62 54
-62 9 0 13 -13 13 -40 0 -22 9 -55 20 -75 11 -20 20 -44 20 -55 0 -11 5 -20
10 -20 6 0 10 -11 10 -25 0 -14 3 -25 8 -25 7 0 32 -70 32 -93 0 -7 9 -19 20
-27 25 -18 26 -64 2 -88 -11 -11 -19 -27 -19 -38 1 -69 -1 -74 -39 -74 -31 0
-35 -3 -32 -22 3 -20 9 -23 48 -23 43 0 45 1 48 32 3 26 11 35 47 53 55 27 69
43 67 83 0 18 5 42 11 55 9 19 7 31 -13 67 -22 39 -23 48 -12 78 24 67 9 172
-30 208 -12 11 -18 31 -18 63 0 25 -4 46 -10 46 -5 0 -10 7 -10 15 0 8 -9 29
-20 47 -11 18 -20 41 -20 51 0 9 -3 17 -7 17 -5 0 -17 21 -27 48 -24 59 -77
153 -120 212 -32 44 -56 57 -108 59 -22 1 -26 -3 -22 -16z"/>
<path d="M5607 12813 c-14 -14 -6 -61 13 -78 20 -18 20 -17 20 16 -1 35 -22
74 -33 62z"/>
<path d="M4714 12644 c3 -9 6 -19 6 -24 0 -4 16 -20 36 -35 29 -22 38 -25 45
-14 15 25 10 36 -31 63 -45 30 -65 33 -56 10z"/>
<path d="M4706 12479 c-19 -19 -19 -19 3 -40 12 -11 28 -18 35 -16 14 6 28 56
19 69 -8 14 -38 7 -57 -13z"/>
<path d="M4675 12378 c-9 -34 -2 -138 9 -141 11 -2 24 39 32 94 3 27 0 40 -15
53 -19 18 -20 17 -26 -6z"/>
<path d="M11020 12250 c0 -5 5 -10 10 -10 6 0 10 5 10 10 0 6 -4 10 -10 10 -5
0 -10 -4 -10 -10z"/>
<path d="M11033 11924 c-3 -8 0 -27 6 -40 14 -31 45 -28 49 4 6 41 -41 72 -55
36z"/>
<path d="M11157 11735 c-15 -14 -27 -32 -27 -40 0 -10 -10 -15 -26 -15 -32 0
-84 -50 -84 -81 0 -11 -10 -43 -21 -70 -21 -49 -18 -83 5 -45 6 11 34 43 61
72 52 55 75 87 75 104 0 6 14 24 30 40 28 27 40 60 22 60 -4 0 -20 -11 -35
-25z"/>
<path d="M4555 11650 c-4 -16 -4 -33 -2 -37 7 -12 -20 -73 -33 -73 -14 0 -13
-46 2 -73 13 -23 21 -85 38 -297 18 -215 21 -235 37 -247 12 -9 14 -36 11
-147 -3 -132 4 -159 26 -110 5 10 20 28 33 38 23 17 26 17 41 2 14 -14 14 -21
3 -52 -14 -39 -7 -149 9 -139 5 3 10 -7 12 -22 5 -41 32 -36 36 6 2 19 -2 37
-8 41 -8 5 -3 22 14 55 15 26 26 64 26 84 0 20 8 45 16 56 14 19 16 19 28 3 7
-10 19 -18 26 -18 9 0 10 3 1 13 -10 13 -7 55 26 300 4 29 2 37 -11 37 -14 0
-43 38 -37 50 1 2 -2 5 -8 7 -7 1 -8 0 -1 -4 6 -3 4 -13 -5 -26 -8 -12 -15
-36 -15 -54 0 -46 -17 -50 -23 -5 -21 139 -77 366 -109 438 -5 11 -8 27 -7 35
2 8 -6 34 -17 59 -12 25 -27 60 -34 78 -10 25 -18 32 -40 32 -23 0 -30 -5 -35
-30z"/>
<path d="M11263 11610 c-13 -16 -23 -33 -23 -39 0 -6 -19 -11 -45 -11 -25 0
-45 -4 -45 -10 0 -5 -6 -10 -13 -10 -27 0 -136 -182 -137 -227 0 -17 -4 -35
-10 -38 -14 -9 -13 -208 1 -222 8 -8 11 -55 11 -132 -1 -68 3 -121 8 -121 5 0
7 -6 4 -14 -3 -7 2 -20 10 -29 9 -9 16 -20 16 -26 0 -6 5 -11 11 -11 17 0 38
-32 39 -57 0 -24 25 -32 33 -10 2 6 7 -3 11 -20 9 -38 26 -54 26 -24 0 11 -4
23 -10 26 -5 3 -10 35 -10 71 0 41 -4 63 -10 59 -6 -4 -10 7 -10 27 0 24 3 29
9 19 7 -11 10 -4 13 24 2 28 8 41 21 43 15 3 17 -7 17 -109 0 -122 11 -168 50
-212 23 -26 25 -27 37 -11 7 10 13 25 13 33 0 14 -1 14 -10 1 -8 -13 -10 -13
-10 2 0 9 6 19 13 22 10 5 10 7 0 12 -7 3 -13 16 -13 29 0 13 -4 26 -9 29 -15
10 -18 53 -5 77 14 25 19 125 8 153 -7 19 -45 21 -62 4 -16 -16 -26 -4 -10 13
29 30 41 79 46 187 5 117 0 131 -36 96 -22 -23 -28 0 -8 31 9 13 16 30 16 36
0 17 41 103 54 111 14 9 12 106 -2 120 -22 22 -14 46 15 50 25 3 28 7 28 41 0
22 -2 40 -5 42 -3 1 -15 -10 -27 -25z"/>
<path d="M4315 11573 c-4 -10 -12 -38 -17 -63 -20 -100 -29 -147 -35 -180 -3
-19 -9 -37 -14 -40 -4 -3 -10 -39 -13 -80 -7 -111 -17 -180 -27 -180 -12 0
-11 -284 0 -334 13 -53 22 -60 63 -47 79 28 122 162 133 412 9 225 12 259 29
283 17 27 13 52 -13 65 -9 5 -22 31 -29 58 -16 59 -43 115 -58 120 -6 2 -15
-4 -19 -14z"/>
<path d="M5360 11553 c0 -16 29 -70 45 -83 23 -19 28 -6 12 27 -17 31 -57 72
-57 56z"/>
<path d="M5436 11221 c-12 -18 7 -112 24 -121 24 -13 30 -4 30 42 0 54 -37
108 -54 79z"/>
<path d="M5280 11186 c0 -19 5 -38 10 -41 6 -3 10 -19 10 -34 0 -36 22 -66 44
-58 18 7 22 65 7 95 -5 9 -14 29 -22 45 -7 15 -20 27 -31 27 -14 0 -18 -8 -18
-34z"/>
<path d="M5397 11033 c-4 -3 -7 -19 -7 -35 0 -18 -5 -28 -15 -28 -8 0 -15 9
-15 20 0 19 -25 38 -36 28 -2 -3 -7 -20 -9 -39 -5 -39 34 -99 65 -99 22 0 44
-34 36 -55 -3 -8 -13 -18 -24 -24 -16 -8 -23 -3 -49 33 -30 42 -104 88 -110
69 -2 -6 -11 -19 -19 -29 -11 -14 -17 -15 -20 -6 -3 6 -12 12 -20 12 -24 0
-18 -90 11 -143 23 -45 25 -77 3 -77 -6 0 -7 -7 -2 -17 4 -10 10 -45 14 -78
11 -90 19 -116 48 -165 15 -25 30 -53 34 -63 12 -30 34 0 42 58 17 116 26 183
32 237 l6 58 38 -6 c31 -5 40 -3 48 13 7 12 7 25 1 34 -11 17 -12 79 -1 79 4
0 12 11 19 25 9 21 8 36 -8 80 -10 30 -19 65 -19 78 0 33 -26 57 -43 40z"/>
<path d="M4414 10875 c-7 -30 2 -59 16 -50 13 8 13 75 0 75 -5 0 -12 -11 -16
-25z"/>
<path d="M5064 10876 c-3 -15 -1 -46 5 -71 6 -24 11 -55 11 -69 0 -32 21 -77
33 -73 12 4 9 157 -3 172 -4 5 -10 21 -12 34 -4 34 -26 38 -34 7z"/>
<path d="M5500 10843 c0 -41 22 -69 39 -50 14 18 -4 84 -24 84 -10 0 -15 -11
-15 -34z"/>
<path d="M6390 10845 c-7 -9 -22 -14 -34 -13 -18 3 -21 -1 -18 -32 4 -34 42
-79 68 -80 32 -1 63 85 44 121 -13 23 -43 25 -60 4z"/>
<path d="M6534 10815 c-19 -46 -18 -85 3 -100 20 -15 31 -6 51 39 10 22 10 36
2 62 -15 44 -37 43 -56 -1z"/>
<path d="M6653 10803 c-7 -3 -13 -15 -13 -28 0 -13 -4 -27 -10 -30 -5 -3 -10
-16 -10 -27 0 -32 23 -89 34 -85 11 4 36 83 36 118 0 30 -20 59 -37 52z"/>
<path d="M6748 10779 c-26 -28 -28 -35 -28 -123 l0 -93 40 -13 c27 -9 40 -19
40 -31 0 -13 5 -17 18 -12 24 9 32 23 32 61 0 25 6 35 25 44 17 8 28 24 36 52
5 23 11 46 13 51 8 25 -16 55 -60 74 -61 28 -83 26 -116 -10z"/>
<path d="M7080 10769 c-27 -17 -38 -19 -52 -10 -28 18 -36 13 -56 -29 -10 -22
-21 -37 -25 -34 -4 4 -7 -31 -7 -78 0 -46 3 -87 6 -91 3 -3 18 8 32 24 l27 30
-4 -86 c-3 -83 -5 -89 -34 -115 -30 -27 -31 -30 -19 -62 6 -19 12 -43 12 -54
0 -23 19 -76 43 -123 21 -42 22 -61 2 -61 -27 0 -17 -45 15 -68 33 -25 40 -27
40 -11 0 5 -4 8 -9 5 -5 -3 -8 8 -7 24 0 17 2 30 4 30 1 0 22 -19 45 -42 24
-24 55 -52 69 -62 29 -21 30 -43 4 -58 -12 -7 -15 -16 -10 -31 8 -27 63 -76
86 -77 9 0 19 -4 22 -8 2 -4 17 -7 33 -6 15 1 35 3 44 3 9 1 16 8 15 17 -1 11
13 20 44 28 42 11 77 34 121 80 12 12 19 34 19 58 0 21 5 38 10 38 13 0 13
165 0 189 -5 10 -12 78 -15 152 -7 148 -25 214 -71 273 -17 22 -38 36 -51 36
-12 0 -30 11 -40 23 -22 29 -55 47 -83 47 -11 0 -52 16 -90 35 -38 19 -73 35
-77 35 -5 0 -24 -10 -43 -21z"/>
<path d="M5516 10761 c-4 -6 -3 -19 3 -28 9 -17 10 -17 17 0 8 21 -10 45 -20
28z"/>
<path d="M11901 10703 c-5 -11 -13 -46 -16 -79 -6 -48 -4 -62 9 -73 22 -18 42
4 58 64 10 39 10 50 -2 72 -19 34 -36 39 -49 16z"/>
<path d="M4989 10670 c-6 -16 -14 -30 -19 -30 -8 0 -20 -43 -26 -90 -2 -14 3
-42 10 -64 12 -36 11 -44 -9 -90 -12 -28 -25 -64 -29 -81 -4 -16 -18 -46 -31
-65 -23 -34 -67 -154 -80 -217 -4 -18 -11 -33 -16 -33 -5 0 -9 -7 -9 -15 0
-25 -42 -145 -51 -145 -5 0 -9 -24 -9 -53 0 -29 -4 -57 -10 -63 -5 -5 -14 -44
-19 -85 -13 -96 -25 -127 -65 -164 -27 -25 -34 -40 -40 -87 -5 -35 -3 -65 3
-77 6 -11 11 -27 11 -36 0 -9 9 -25 20 -37 11 -12 20 -30 20 -39 0 -28 36
-102 59 -123 l21 -19 0 180 c0 144 3 183 14 192 11 10 16 8 21 -9 8 -25 25
-17 25 12 0 22 4 36 40 144 21 64 26 119 11 128 -9 6 7 62 33 111 9 17 16 36
16 43 0 7 5 21 10 32 6 11 15 29 20 40 6 11 10 30 10 43 0 13 14 45 31 72 17
27 38 70 47 97 8 26 21 48 28 48 25 0 86 121 64 128 -5 2 -5 13 0 26 15 41 3
194 -19 229 -10 18 -22 53 -26 80 -6 37 -11 47 -27 47 -12 0 -23 -11 -29 -30z"/>
<path d="M5427 10623 c-2 -5 -4 -39 -6 -78 l-2 -70 21 33 c23 37 26 68 8 76
-10 5 -10 7 0 12 17 8 15 34 -2 34 -8 0 -17 -3 -19 -7z"/>
<path d="M11088 10563 c-5 -24 10 -83 27 -107 18 -24 42 -15 51 19 7 29 -15
67 -53 92 -19 13 -22 12 -25 -4z"/>
<path d="M11966 10549 c-30 -90 -33 -104 -24 -125 12 -26 46 -38 65 -22 24 19
9 113 -23 147 -11 13 -14 13 -18 0z"/>
<path d="M6800 10471 c0 -6 -17 -11 -37 -11 -21 0 -43 -4 -49 -8 -20 -14 -35
-69 -33 -118 1 -27 -3 -66 -10 -87 -8 -22 -10 -54 -6 -75 3 -20 7 -65 8 -99 3
-75 14 -90 58 -77 35 10 67 53 68 92 1 17 10 27 31 35 17 6 30 17 30 24 0 24
25 93 33 93 10 0 6 90 -5 96 -4 3 -8 22 -9 42 -1 30 -8 43 -40 71 -21 18 -39
28 -39 22z m-52 -173 c7 -7 12 -39 11 -77 -1 -60 -2 -63 -11 -36 -6 17 -14 32
-18 35 -13 9 -30 49 -30 69 0 24 28 29 48 9z"/>
<path d="M9165 10461 c-46 -4 -89 -16 -126 -34 -31 -15 -61 -27 -67 -27 -7 0
-12 -4 -12 -10 0 -5 -12 -10 -26 -10 -14 0 -32 -6 -40 -14 -7 -8 -32 -17 -54
-21 -22 -4 -40 -10 -40 -14 0 -3 -21 -14 -48 -23 -26 -10 -62 -30 -80 -46 -33
-29 -33 -30 -21 -77 8 -32 14 -42 20 -33 6 9 9 2 9 -19 0 -18 -4 -33 -10 -33
-22 0 -3 -74 23 -92 6 -3 36 -9 66 -13 53 -6 80 -2 176 25 22 7 52 14 68 17
34 7 34 17 2 45 -14 12 -25 27 -25 34 0 20 63 74 87 74 26 0 52 -50 56 -109 3
-58 40 -81 126 -81 33 0 63 -4 66 -10 9 -15 265 -13 298 3 14 6 32 24 38 40 6
15 15 27 20 27 5 0 9 9 9 19 0 11 5 23 10 26 6 3 10 16 10 29 0 12 9 32 21 45
33 35 90 21 143 -34 23 -24 46 -51 51 -60 9 -15 19 -16 63 -10 75 10 69 20
-42 72 -88 42 -96 47 -96 59 0 10 -63 34 -91 34 -8 0 -27 11 -43 25 -16 13
-37 27 -47 30 -11 4 -19 11 -19 16 0 6 -17 8 -44 4 -29 -5 -53 -2 -72 8 -16 8
-49 17 -74 21 -104 16 -153 46 -89 54 13 2 28 8 34 13 5 5 24 9 41 9 57 0 45
16 -19 28 -88 16 -171 20 -252 13z m115 -100 c0 -10 -38 -18 -62 -13 -34 7
-18 22 22 22 22 0 40 -4 40 -9z m283 -81 c14 -11 28 -20 31 -20 4 0 16 -9 28
-20 l22 -20 -60 0 c-54 0 -60 2 -71 27 -9 19 -10 30 -2 40 15 17 22 17 52 -7z
m-243 -234 c0 -8 -7 -17 -16 -20 -22 -8 -24 -8 -24 8 0 8 -6 17 -12 19 -7 3 2
6 20 6 21 1 32 -4 32 -13z"/>
<path d="M5135 10439 c-16 -49 20 -199 48 -199 5 0 17 10 26 22 30 37 51 18
51 -47 0 -56 6 -65 28 -43 30 30 -4 129 -55 160 -15 9 -36 39 -48 69 -26 60
-40 71 -50 38z"/>
<path d="M6366 10427 c-22 -22 -26 -35 -26 -86 0 -34 5 -61 11 -63 6 -2 12
-21 13 -43 3 -48 13 -72 33 -79 12 -5 14 1 8 33 -5 30 -3 40 10 44 11 5 19 -1
25 -18 12 -31 22 -31 54 -1 22 20 26 32 26 85 0 34 -4 61 -10 61 -5 0 -10 9
-10 20 0 11 -4 20 -10 20 -5 0 -10 7 -10 15 0 8 -4 15 -10 15 -5 0 -10 -9 -10
-20 0 -12 -9 -31 -20 -43 l-21 -22 3 38 c1 24 -4 43 -14 53 -15 15 -18 15 -42
-9z"/>
<path d="M6000 10411 c0 -6 4 -11 8 -11 5 0 15 -23 22 -51 8 -27 18 -52 22
-55 4 -3 8 -16 8 -30 0 -13 5 -24 10 -24 6 0 10 -13 10 -28 0 -27 15 -52 32
-52 10 0 28 69 28 111 0 19 5 40 11 46 6 6 9 26 7 44 -3 31 -6 34 -37 37 -18
2 -38 -1 -43 -6 -7 -7 -22 -3 -44 10 -19 11 -34 15 -34 9z"/>
<path d="M6595 10380 c-20 -39 -21 -146 0 -153 23 -9 45 48 45 120 0 72 -18
85 -45 33z"/>
<path d="M5910 10356 c-7 -18 -7 -33 0 -46 5 -10 10 -30 10 -44 0 -14 4 -26 8
-26 5 0 14 -22 20 -49 20 -86 48 -136 86 -149 46 -17 66 -7 66 33 0 18 -4 35
-8 37 -24 9 -112 160 -112 191 0 25 -6 34 -37 61 -22 18 -23 18 -33 -8z"/>
<path d="M5852 10328 c-5 -7 -13 -38 -17 -69 -5 -44 -4 -58 9 -68 17 -15 21
-48 7 -69 -17 -27 50 -175 70 -155 24 24 31 163 8 163 -5 0 -9 8 -9 18 0 9 -9
32 -20 50 -14 22 -20 50 -20 87 0 54 -8 67 -28 43z"/>
<path d="M11951 10327 c-8 -10 -7 -27 4 -65 15 -50 32 -67 39 -39 20 73 21 94
10 105 -17 16 -39 15 -53 -1z"/>
<path d="M6196 10266 c-9 -30 -16 -64 -16 -75 0 -12 -4 -21 -10 -21 -5 0 -10
-21 -10 -47 1 -41 6 -54 37 -87 29 -31 43 -39 75 -40 24 0 43 5 49 14 8 13 13
10 33 -14 27 -32 56 -30 56 4 0 29 -25 85 -49 112 -12 12 -21 30 -21 39 0 10
-4 21 -10 24 -5 3 -10 15 -10 25 0 21 -33 84 -55 106 -30 30 -53 17 -69 -40z"/>
<path d="M6515 10184 c-15 -16 -15 -18 0 -33 14 -14 17 -14 25 -1 12 19 13 50
1 50 -5 0 -17 -7 -26 -16z"/>
<path d="M6437 10134 c-8 -8 3 -34 14 -34 5 0 9 9 9 20 0 19 -11 26 -23 14z"/>
<path d="M5283 10101 c-9 -12 -26 -21 -37 -21 -38 0 -61 -65 -32 -89 12 -10
17 -7 28 15 23 48 38 41 38 -16 0 -28 4 -49 8 -46 7 4 30 107 36 160 2 18 -24
16 -41 -3z"/>
<path d="M6457 10003 c-12 -11 -8 -23 8 -23 8 0 15 7 15 15 0 16 -12 20 -23 8z"/>
<path d="M11330 9910 c0 -15 64 -77 88 -84 12 -4 22 -11 22 -15 0 -4 7 -8 15
-8 12 0 11 5 -3 30 -32 56 -122 112 -122 77z"/>
<path d="M5147 9894 c-4 -4 -7 -36 -7 -72 l0 -65 21 26 c31 40 18 143 -14 111z"/>
<path d="M5272 9888 c-17 -17 -15 -48 2 -48 18 0 32 38 19 51 -5 5 -14 4 -21
-3z"/>
<path d="M5326 9853 c-9 -10 -7 -79 4 -108 15 -39 30 -21 30 36 0 47 -19 87
-34 72z"/>
<path d="M11301 9821 c-11 -7 -10 -13 4 -35 14 -22 25 -26 63 -26 43 0 44 1
29 18 -10 10 -17 24 -17 30 0 7 -9 12 -19 12 -11 0 -25 2 -33 5 -7 3 -19 1
-27 -4z"/>
<path d="M3688 9685 c-9 -19 -9 -28 0 -37 7 -7 12 -24 12 -39 0 -15 6 -32 14
-39 8 -6 17 -21 19 -33 2 -12 5 14 5 58 1 53 -3 86 -12 98 -18 23 -24 22 -38
-8z"/>
<path d="M11276 9608 c-9 -17 -16 -41 -16 -53 0 -28 22 -73 39 -80 22 -9 96
38 99 63 2 12 -1 22 -7 22 -6 0 -11 8 -11 18 0 27 -37 62 -65 62 -16 0 -28 -9
-39 -32z"/>
<path d="M2667 9453 c7 -3 9 -11 6 -19 -4 -10 2 -14 21 -14 16 0 26 -6 26 -15
0 -8 5 -15 10 -15 6 0 10 5 10 11 0 5 4 8 9 4 5 -3 13 0 17 6 4 8 3 9 -5 5 -6
-4 -14 0 -17 8 -3 9 -10 13 -15 10 -5 -3 -9 1 -9 9 0 9 -11 14 -32 14 -18 0
-28 -2 -21 -4z"/>
<path d="M2780 9414 c0 -8 5 -12 10 -9 6 4 8 11 5 16 -9 14 -15 11 -15 -7z"/>
<path d="M5131 9314 c0 -11 3 -14 6 -6 3 7 2 16 -1 19 -3 4 -6 -2 -5 -13z"/>
<path d="M11348 9187 c-7 -8 -24 -29 -38 -47 -14 -18 -30 -38 -35 -44 -6 -6
-17 -27 -25 -46 -7 -19 -17 -39 -22 -44 -19 -22 -8 -56 25 -76 48 -30 63 -25
88 25 12 25 26 45 31 45 4 0 8 9 8 20 0 11 4 20 8 20 16 0 32 51 32 103 0 51
-1 53 -29 55 -16 1 -35 -4 -43 -11z"/>
<path d="M13405 9147 c-4 -10 -5 -21 -1 -24 10 -10 18 4 13 24 -4 17 -4 17
-12 0z"/>
<path d="M5083 9117 c-2 -23 0 -28 7 -17 12 18 13 50 3 50 -5 0 -9 -15 -10
-33z"/>
<path d="M5180 8996 c0 -14 5 -28 10 -31 6 -3 10 -15 10 -26 0 -10 4 -19 8
-19 5 0 17 -18 27 -40 10 -22 24 -45 32 -51 10 -9 13 -4 13 30 0 31 -8 55 -30
87 -17 24 -35 44 -40 44 -6 0 -10 7 -10 15 0 8 -4 15 -10 15 -5 0 -10 -11 -10
-24z"/>
<path d="M5156 8863 c4 -32 10 -60 14 -63 3 -3 12 -21 20 -40 22 -55 51 -100
71 -111 17 -8 19 -6 19 20 0 16 -4 33 -10 36 -5 3 -10 15 -10 26 0 10 -4 19
-10 19 -5 0 -10 10 -10 23 0 21 -73 147 -85 147 -3 0 -2 -26 1 -57z"/>
<path d="M11195 8890 c3 -11 2 -27 -3 -37 -12 -21 5 -73 23 -73 7 0 19 15 26
33 7 17 14 35 16 38 5 8 -29 44 -50 52 -15 6 -17 3 -12 -13z"/>
<path d="M5314 8805 c-6 -26 31 -105 54 -113 20 -6 14 52 -10 97 -25 47 -35
51 -44 16z"/>
<path d="M11133 8678 c-7 -24 -14 -72 -17 -108 l-5 -65 15 45 c8 25 16 56 19
70 2 14 7 42 11 63 9 51 -9 47 -23 -5z"/>
<path d="M5397 8468 c8 -42 43 -139 56 -155 5 -7 13 -13 18 -13 12 0 11 67 -1
75 -5 3 -10 17 -10 31 0 13 -4 24 -8 24 -4 0 -14 16 -21 35 -16 46 -43 48 -34
3z"/>
<path d="M7570 8398 c-37 -19 -45 -27 -42 -48 3 -28 23 -46 67 -59 16 -5 56
-21 88 -34 l58 -24 -122 4 c-68 2 -130 8 -139 13 -9 5 -22 5 -30 0 -8 -5 -25
-7 -37 -4 -14 4 -29 -2 -42 -15 -12 -12 -27 -21 -34 -21 -18 0 -37 -21 -37
-42 0 -37 72 -168 93 -168 2 0 7 10 11 23 5 20 8 18 31 -23 14 -25 29 -52 34
-60 4 -8 17 -17 27 -19 10 -2 23 -8 27 -15 8 -10 5 5 -9 54 -8 31 20 25 49
-10 30 -35 52 -37 87 -10 34 27 54 27 40 0 -6 -11 -17 -20 -25 -20 -8 0 -15
-4 -15 -9 0 -5 -3 -16 -6 -24 -3 -10 2 -18 15 -22 12 -3 21 -13 21 -20 0 -17
43 -30 61 -19 7 4 25 8 39 9 14 1 44 2 68 3 l42 2 0 40 c0 29 4 40 15 40 22 0
18 14 -14 49 -26 28 -31 30 -45 16 -14 -14 -16 -13 -26 5 -13 24 -37 26 -68 4
-13 -9 -26 -13 -30 -10 -3 4 4 13 16 22 12 8 22 21 22 28 0 8 7 19 15 26 26
21 18 57 -15 72 -52 22 -44 35 17 27 30 -4 61 -5 69 -2 16 6 19 39 4 48 -5 3
-10 21 -10 38 0 32 -26 65 -108 140 -44 39 -104 45 -162 15z"/>
<path d="M11340 8224 c0 -17 28 -49 36 -41 7 6 -17 57 -28 57 -4 0 -8 -7 -8
-16z"/>
<path d="M8380 8191 c0 -5 -15 -9 -34 -9 -39 0 -91 -24 -99 -47 -10 -23 93
-21 119 3 10 10 37 19 58 20 45 3 79 19 71 33 -8 12 -115 12 -115 0z"/>
<path d="M8466 8141 c-16 -18 -16 -19 10 -25 31 -8 50 5 41 28 -8 21 -30 20
-51 -3z"/>
<path d="M8560 8144 c0 -9 5 -14 12 -12 18 6 21 28 4 28 -9 0 -16 -7 -16 -16z"/>
<path d="M11340 8096 c0 -36 5 -68 10 -71 6 -3 10 -31 10 -61 0 -30 3 -54 8
-54 4 0 15 -19 25 -41 10 -23 20 -39 23 -37 2 3 5 56 5 118 0 100 -2 116 -19
129 -10 9 -25 31 -32 49 -19 50 -30 38 -30 -32z"/>
<path d="M7851 8057 c6 -13 16 -24 23 -24 6 0 13 11 14 24 1 18 -3 23 -23 23
-22 0 -24 -2 -14 -23z"/>
<path d="M1229 8060 c-41 -5 -65 -14 -85 -34 -16 -14 -32 -26 -36 -26 -10 0
-68 -60 -68 -71 0 -5 -6 -9 -12 -9 -14 0 -68 -63 -68 -78 0 -5 -7 -16 -17 -23
-9 -8 -24 -33 -35 -55 -10 -23 -25 -47 -33 -54 -11 -10 -12 -16 -4 -26 9 -11
4 -19 -20 -40 -17 -14 -28 -31 -24 -36 4 -7 -1 -9 -14 -6 -16 4 -19 1 -16 -12
5 -17 -22 -30 -68 -35 -25 -3 -122 -38 -138 -50 -11 -7 -13 -7 -7 3 4 6 3 12
-3 12 -5 0 -14 -7 -19 -16 -5 -9 -27 -17 -52 -20 -24 -3 -57 -13 -74 -22 -41
-21 -130 -33 -299 -38 l-137 -5 0 -562 0 -562 40 -19 c25 -12 40 -26 40 -38 0
-10 6 -18 13 -18 23 -1 67 -49 67 -74 0 -13 5 -26 12 -28 6 -2 14 -26 18 -54
4 -27 10 -57 14 -66 5 -11 0 -24 -18 -39 -17 -15 -26 -33 -26 -52 0 -17 -3
-27 -6 -24 -4 4 -17 -16 -30 -43 -13 -28 -28 -50 -34 -50 -5 0 -10 -8 -10 -18
0 -10 -18 -36 -40 -57 l-40 -39 0 -332 0 -332 38 -23 c20 -12 40 -22 44 -21 4
1 25 -7 45 -17 29 -15 85 -24 233 -36 107 -9 214 -17 237 -18 24 -1 43 -5 43
-9 0 -5 8 -8 18 -8 10 0 24 -6 31 -12 11 -11 12 -10 6 2 -8 13 -7 13 8 1 11
-9 17 -10 17 -2 0 14 47 15 55 1 3 -6 11 -10 16 -10 6 0 7 5 4 10 -4 6 8 10
29 10 27 0 34 3 30 15 -4 8 1 17 10 21 9 3 16 14 16 24 0 10 9 20 20 23 24 6
26 52 5 112 -9 26 -11 43 -4 51 6 8 5 14 -6 18 -8 3 -15 16 -15 30 0 13 -4 26
-8 28 -5 2 -12 56 -16 121 -5 100 -4 117 9 117 11 0 15 13 17 53 3 89 5 111
15 154 8 32 7 48 -3 69 -8 14 -14 48 -14 75 0 36 -4 49 -14 49 -17 0 -29 125
-23 245 3 44 9 175 15 290 8 146 8 235 1 290 -17 137 -19 164 -28 390 -7 149
-6 222 1 226 6 4 7 19 4 37 -5 20 -1 43 10 68 10 22 18 46 18 54 1 17 64 50
83 43 7 -3 13 -1 13 4 0 29 118 37 193 14 18 -5 53 -12 79 -16 50 -6 217 -87
231 -111 4 -8 16 -14 25 -14 10 0 25 -8 33 -17 9 -10 33 -31 54 -48 21 -16 46
-38 56 -47 10 -9 19 -15 21 -13 2 2 37 -27 77 -66 41 -38 71 -69 67 -69 -3 0
2 -8 12 -18 9 -11 20 -17 25 -15 4 2 7 -1 7 -7 0 -13 86 -100 99 -100 9 0 23
-38 27 -80 2 -13 9 -29 17 -35 7 -5 16 -18 20 -27 3 -10 11 -18 17 -18 5 0 10
-6 10 -14 0 -8 6 -21 13 -28 30 -30 68 -129 62 -159 -5 -21 -2 -31 8 -35 8 -3
18 -16 21 -30 4 -13 11 -24 16 -24 6 0 10 -10 10 -21 0 -12 8 -29 18 -38 10
-9 21 -24 25 -33 9 -25 37 -23 37 2 0 11 7 20 15 20 8 0 21 14 30 30 18 35 25
39 17 8 -3 -14 -2 -19 6 -14 7 4 12 18 12 31 0 13 5 27 10 30 6 4 10 15 8 24
-4 24 72 108 115 126 85 35 308 2 407 -60 51 -32 100 -77 100 -92 0 -7 5 -13
10 -13 6 0 10 -6 10 -14 0 -8 4 -16 9 -18 12 -4 91 -161 91 -180 0 -9 9 -27
20 -41 12 -14 20 -40 20 -61 0 -25 4 -36 15 -36 9 0 15 -9 15 -21 0 -12 7 -36
16 -54 12 -27 27 -38 67 -51 29 -10 77 -19 107 -20 30 -1 71 -5 91 -9 31 -6
36 -4 47 20 7 14 12 32 12 39 0 7 20 35 45 61 34 37 47 60 55 101 6 30 15 56
19 59 5 2 11 27 15 54 4 27 14 67 23 88 11 28 16 73 17 172 l1 134 -32 15
c-18 9 -33 19 -33 24 0 12 -96 10 -125 -4 -23 -10 -29 -8 -60 22 -22 22 -39
31 -51 26 -9 -3 -22 -2 -29 4 -37 30 -238 83 -290 76 -45 -6 -245 -19 -287
-18 -15 0 -30 -4 -33 -9 -11 -16 -72 -9 -117 14 -23 12 -44 25 -46 30 -2 4
-10 7 -18 7 -7 0 -19 9 -26 20 -7 11 -16 20 -20 20 -5 0 -17 8 -28 18 -11 9
-29 25 -40 35 -11 9 -20 14 -20 10 0 -3 -10 5 -22 18 -13 14 -40 38 -61 53
-71 52 -164 139 -192 180 -11 16 -28 37 -37 48 -10 10 -18 23 -18 28 0 6 -4
10 -8 10 -5 0 -26 35 -47 78 -21 42 -41 79 -45 82 -4 3 -13 30 -19 61 -7 31
-18 65 -26 75 -8 11 -15 27 -15 37 0 9 -4 25 -9 35 -6 9 -20 39 -33 65 -24 53
-59 83 -102 91 -16 3 -39 12 -52 21 -13 8 -31 15 -40 15 -9 0 -27 9 -41 20
-14 11 -33 20 -43 20 -10 0 -29 9 -43 20 -14 11 -34 20 -45 20 -12 0 -23 4
-27 9 -6 10 -123 47 -170 53 -16 3 -55 2 -86 -2z"/>
<path d="M11150 7928 c0 -30 15 -46 23 -24 3 8 -1 22 -8 33 -13 17 -14 16 -15
-9z"/>
<path d="M13096 7924 c-4 -10 2 -33 12 -53 10 -20 17 -43 17 -51 -1 -8 11 -40
26 -70 15 -30 40 -84 54 -119 66 -161 165 -266 228 -242 15 6 31 26 41 51 19
48 23 152 7 192 -14 36 -78 96 -121 114 -24 10 -45 32 -68 68 -40 65 -66 90
-114 111 -48 19 -74 19 -82 -1z"/>
<path d="M12060 7881 c-15 -29 -12 -56 9 -75 22 -20 27 -15 36 36 6 30 4 38
-14 47 -17 9 -22 8 -31 -8z"/>
<path d="M11106 7853 c-4 -9 -2 -21 4 -27 5 -5 10 -18 10 -28 0 -10 5 -18 10
-18 6 0 10 -11 10 -24 0 -14 5 -28 10 -31 6 -3 10 -15 10 -25 0 -10 3 -20 8
-22 12 -5 42 -78 33 -78 -6 0 -13 9 -16 20 -3 11 -11 20 -16 20 -5 0 -9 9 -9
20 0 11 -4 20 -10 20 -5 0 -10 7 -10 15 0 8 -4 15 -10 15 -5 0 -10 5 -10 11 0
16 -28 41 -39 35 -5 -4 -11 0 -14 6 -3 7 -3 -16 -1 -52 2 -36 1 -57 -2 -47 -3
9 -10 15 -15 12 -5 -4 -9 -1 -9 5 0 6 -4 8 -10 5 -12 -8 -13 -202 -1 -209 5
-3 12 -26 15 -51 4 -24 11 -47 16 -50 5 -3 15 -18 23 -34 12 -24 12 -29 1 -24
-7 3 -16 13 -19 24 -4 10 -11 19 -16 19 -5 0 -9 6 -9 13 0 8 -13 26 -30 40
-16 15 -30 22 -30 16 0 -5 -4 -7 -10 -4 -6 4 -10 -11 -10 -39 0 -28 -8 -58
-20 -78 -11 -18 -20 -43 -20 -55 0 -12 -4 -25 -10 -28 -5 -3 -10 -16 -10 -27
0 -26 -19 -89 -49 -160 -6 -16 -15 -38 -20 -50 -16 -42 -29 -73 -60 -140 -17
-37 -31 -72 -31 -77 0 -6 -4 -11 -10 -11 -5 0 -10 -12 -10 -26 0 -14 -13 -45
-30 -69 -16 -24 -30 -50 -30 -57 0 -8 -4 -18 -9 -23 -5 -6 -19 -27 -30 -47
-22 -40 -50 -90 -73 -129 -7 -13 -19 -29 -25 -37 -7 -7 -13 -17 -13 -21 0 -4
-11 -21 -25 -37 -14 -16 -25 -38 -25 -50 0 -11 -10 -26 -23 -33 -12 -7 -36
-32 -52 -56 -17 -25 -33 -45 -37 -45 -5 0 -8 -5 -8 -10 0 -15 -80 -120 -91
-120 -5 0 -9 -6 -9 -13 0 -7 -14 -23 -31 -37 -45 -35 -149 -142 -149 -152 0
-5 -12 -13 -26 -18 -14 -6 -28 -19 -31 -30 -3 -11 -13 -20 -22 -20 -9 0 -28
-11 -43 -25 -15 -14 -32 -25 -38 -25 -5 0 -10 -4 -10 -9 0 -6 -28 -25 -62 -43
-34 -18 -84 -53 -111 -78 -55 -50 -106 -96 -137 -123 -13 -11 -20 -27 -18 -40
3 -20 9 -22 61 -22 38 0 57 -4 57 -12 0 -12 -54 -43 -75 -43 -7 0 -18 -7 -25
-15 -10 -12 -10 -15 3 -15 8 0 17 -9 20 -21 4 -16 13 -20 39 -18 18 1 41 -2
51 -6 9 -4 36 -2 60 4 23 7 98 12 167 13 163 0 180 -1 180 -10 0 -16 -117 -62
-159 -62 -12 0 -45 -7 -72 -16 -41 -14 -54 -24 -70 -55 -11 -22 -24 -39 -29
-39 -6 0 -10 -11 -10 -25 0 -14 -4 -25 -9 -25 -15 0 -35 -60 -24 -71 7 -7 13
-7 17 -1 4 7 18 7 42 0 24 -6 45 -6 66 1 17 6 49 11 70 11 31 0 39 -4 36 -16
-3 -15 -67 -58 -133 -88 -43 -20 -77 -55 -71 -74 2 -9 10 -46 16 -82 7 -36 17
-70 22 -76 5 -7 35 -20 68 -30 33 -11 60 -22 60 -26 0 -5 11 -8 25 -8 14 0 25
-4 25 -10 0 -5 9 -10 19 -10 11 0 38 -9 60 -20 23 -11 59 -29 82 -40 22 -11
49 -20 59 -20 11 0 22 -4 25 -10 3 -5 15 -10 26 -10 10 0 27 -4 37 -9 9 -5 31
-14 47 -21 17 -7 38 -16 47 -21 10 -5 27 -9 38 -9 11 0 20 -4 20 -10 0 -5 11
-10 24 -10 14 0 28 -4 31 -10 3 -5 17 -10 31 -10 13 0 32 -4 42 -9 9 -5 44
-22 77 -37 33 -15 69 -32 80 -37 11 -5 31 -14 45 -18 15 -5 3 -6 -30 -2 -30 3
-56 10 -58 14 -2 5 -17 9 -34 9 -35 0 -98 16 -145 36 -17 8 -39 14 -50 14 -10
0 -31 7 -47 15 -15 8 -40 15 -54 15 -25 0 -120 27 -303 86 -42 13 -86 24 -98
24 -11 0 -21 4 -21 8 0 11 -79 29 -103 24 -15 -3 -17 -9 -11 -35 4 -18 7 -43
6 -56 -1 -14 5 -35 13 -48 14 -21 14 -23 -5 -23 -21 0 -25 -8 -12 -25 7 -11
10 -11 72 -13 27 -2 40 -7 40 -16 0 -8 12 -19 28 -24 l27 -10 -27 -7 c-41 -11
-36 -38 9 -54 26 -10 38 -10 41 -3 4 12 52 -5 52 -18 0 -17 -15 -19 -32 -3
-11 9 -18 11 -18 5 0 -7 4 -12 9 -12 5 0 12 -13 16 -29 9 -41 31 -58 56 -43
16 10 19 9 19 -3 0 -9 14 -21 30 -26 17 -6 30 -17 30 -24 0 -8 24 -14 76 -17
42 -3 79 -10 83 -17 4 -6 15 -9 23 -6 10 4 23 -4 38 -24 12 -17 30 -31 41 -31
25 0 24 -16 -1 -32 -11 -7 -20 -21 -20 -30 0 -10 -6 -18 -13 -18 -8 0 -22 -9
-32 -20 -10 -11 -37 -25 -59 -31 -23 -6 -45 -16 -51 -23 -15 -19 -44 -32 -105
-46 -30 -7 -57 -16 -60 -20 -9 -12 -119 -60 -152 -67 -18 -3 -43 -15 -56 -27
-13 -11 -27 -20 -30 -19 -4 1 -23 -2 -43 -7 -39 -11 -75 -43 -65 -59 4 -6 -6
-18 -21 -28 -15 -10 -30 -20 -33 -23 -3 -4 -27 -6 -55 -5 -46 1 -105 -20 -105
-37 0 -3 10 -19 23 -35 13 -15 34 -45 46 -66 13 -20 49 -57 81 -82 l58 -45 95
0 c53 0 97 4 99 9 3 8 113 20 201 23 16 0 36 -7 45 -17 9 -10 12 -15 6 -12 -6
4 -20 0 -30 -8 -18 -15 -18 -15 1 -9 20 5 20 5 1 -10 -10 -8 -24 -13 -30 -9
-6 3 -8 3 -4 -2 4 -4 3 -16 -3 -26 -8 -16 -6 -19 10 -19 11 0 23 -5 27 -11 4
-8 9 -7 14 2 6 9 16 4 39 -20 17 -18 35 -29 41 -26 7 4 32 -1 57 -10 47 -18
95 -16 298 16 94 15 125 4 125 -45 0 -26 -5 -36 -20 -41 -11 -3 -20 -11 -20
-16 0 -5 -9 -9 -20 -9 -11 0 -20 -3 -20 -7 0 -5 -18 -17 -40 -27 -22 -10 -37
-23 -34 -27 3 -5 1 -9 -5 -9 -6 0 -8 -6 -5 -14 8 -20 73 -26 109 -11 33 15
112 41 218 74 87 27 235 29 273 4 14 -9 74 -24 132 -34 147 -24 162 -28 202
-49 19 -10 66 -24 103 -30 37 -7 70 -16 73 -21 3 -5 25 -9 50 -9 32 0 44 -4
44 -15 0 -9 9 -15 23 -15 18 0 19 2 7 10 -11 7 -7 10 18 10 22 0 32 -5 32 -15
0 -12 15 -15 74 -15 41 0 77 -4 80 -9 3 -4 38 -12 78 -16 40 -3 78 -11 84 -16
7 -5 79 -10 160 -11 147 -2 150 -1 188 25 21 15 46 27 55 27 9 0 31 9 49 20
18 11 50 20 74 20 52 0 198 49 198 67 0 7 6 13 14 13 16 0 29 61 24 112 -2 18
-12 42 -23 53 -26 27 -109 75 -129 75 -9 0 -16 3 -16 8 0 9 -64 37 -107 47
-18 3 -35 11 -38 16 -4 5 -24 9 -46 9 -21 0 -39 4 -39 10 0 5 -12 13 -27 16
-48 12 -153 95 -153 121 0 7 -3 13 -7 13 -13 0 -41 72 -48 120 -6 48 9 178 24
208 12 25 31 86 31 103 0 26 59 139 73 139 17 0 57 42 57 61 0 8 10 14 25 14
23 0 25 -4 25 -42 0 -24 3 -43 8 -43 8 0 32 -48 32 -66 0 -6 7 -14 15 -18 10
-3 15 -19 15 -44 0 -40 31 -82 61 -82 8 0 24 -7 35 -15 10 -8 29 -15 40 -15
12 0 27 -7 34 -15 7 -8 28 -17 49 -21 20 -3 43 -8 52 -10 31 -9 43 47 29 131
-7 41 -17 75 -21 75 -5 0 -8 3 -7 8 1 4 -7 39 -19 77 -28 91 -30 164 -8 307
22 136 21 139 -59 158 -37 9 -67 25 -96 51 -41 38 -91 52 -104 30 -3 -5 -39
-12 -78 -16 -40 -4 -89 -13 -109 -20 -65 -22 -84 10 -55 91 14 40 11 100 -5
110 -13 8 -11 131 2 156 8 15 8 26 -1 42 -21 37 -90 86 -147 102 -45 13 -58
22 -80 57 -14 23 -48 66 -74 95 -27 29 -56 66 -66 83 -9 16 -21 29 -25 29 -20
0 -118 126 -118 151 0 19 -60 142 -72 147 -5 2 -8 15 -8 28 0 13 -4 24 -10 24
-5 0 -10 9 -10 21 0 11 -4 28 -10 38 -13 25 -50 166 -50 191 0 11 -4 20 -10
20 -5 0 -10 15 -10 33 0 18 -4 37 -9 43 -4 5 -5 45 0 89 4 44 9 141 11 215 l3
135 -33 59 c-18 33 -42 70 -53 84 -10 14 -19 31 -19 38 0 8 -3 14 -8 14 -4 0
-12 10 -17 22 -6 13 -21 28 -35 35 -26 13 -43 56 -34 85 2 9 16 19 30 22 21 6
25 12 21 32 -3 16 1 28 12 33 13 8 14 13 2 35 -11 20 -12 28 -1 41 7 8 16 12
21 9 5 -3 22 -3 37 1 36 7 92 88 92 132 0 46 -13 47 -50 7 -17 -20 -34 -33
-37 -30 -3 3 2 28 11 55 9 27 16 72 16 100 0 41 -3 51 -21 56 -16 5 -35 -8
-95 -70 -41 -42 -80 -75 -87 -73 -28 10 -18 54 23 100 22 25 40 51 40 58 0 6
14 23 31 37 25 21 30 32 27 62 -2 30 -9 39 -37 52 -19 9 -40 24 -47 34 -11 15
-11 20 3 30 16 12 16 14 0 39 -24 35 -47 34 -47 -3 0 -25 -5 -31 -30 -36 -27
-6 -36 -19 -31 -47 0 -5 -6 -8 -15 -8 -8 0 -12 -4 -9 -10 3 -5 0 -10 -9 -10
-8 0 -17 -6 -19 -12 -4 -8 -6 -7 -6 4 -1 9 6 23 14 32 8 8 15 20 15 26 0 6 5
8 10 5 6 -4 10 11 10 37 0 31 6 48 20 61 12 10 20 29 20 47 0 31 -34 94 -64
119 -9 7 -16 20 -16 27 0 8 -4 14 -8 14 -5 0 -15 12 -23 28 -8 15 -16 29 -19
32 -19 19 -50 72 -50 85 0 9 -4 13 -10 10 -5 -3 -10 0 -10 8 0 14 -20 27 -40
27 -4 0 -11 -8 -14 -17z m14 -563 c0 -5 -2 -10 -4 -10 -3 0 -8 5 -11 10 -3 6
-1 10 4 10 6 0 11 -4 11 -10z m140 -5 c0 -8 -4 -15 -10 -15 -5 0 -7 7 -4 15 4
8 8 15 10 15 2 0 4 -7 4 -15z m-58 -90 c6 -30 7 -30 -20 -6 -27 23 -28 31 -3
31 12 0 20 -9 23 -25z m208 -314 c0 -9 -24 -21 -41 -21 -16 0 -10 18 9 23 28
8 32 7 32 -2z m27 -820 c3 -9 23 -52 44 -95 48 -98 54 -166 15 -166 -37 0 -96
64 -96 106 0 31 -19 117 -35 156 -4 11 -1 17 12 20 28 6 54 -3 60 -21z m-1119
-392 c2 -5 15 -9 28 -9 13 0 24 -5 24 -11 0 -12 -138 -10 -146 3 -3 5 -3 16 0
24 5 13 15 14 49 9 23 -4 44 -11 45 -16z m772 -417 c0 -3 15 -20 34 -37 22
-20 35 -42 39 -67 10 -64 29 -93 62 -96 35 -3 64 18 88 64 27 53 41 59 76 33
41 -31 40 -60 -5 -96 -51 -41 -84 -73 -129 -127 -22 -26 -48 -56 -57 -67 -25
-27 -23 -29 20 -29 26 0 48 -8 65 -22 32 -29 69 -120 62 -156 -3 -15 -7 -49
-11 -77 -7 -62 -35 -135 -51 -135 -25 0 -41 25 -100 160 -25 55 -35 142 -24
193 8 34 7 37 -13 38 -51 3 -51 3 -51 49 0 29 -10 63 -27 95 -14 28 -31 84
-38 125 -6 41 -15 89 -20 105 -5 17 -12 51 -15 77 -7 44 -5 49 16 56 20 8 27
4 51 -35 15 -24 28 -47 28 -51z m356 -449 c8 -32 8 -46 -2 -65 -13 -23 -13
-23 -14 -1 0 12 6 24 13 26 6 3 3 6 -7 6 -11 1 -17 4 -13 7 3 3 -3 14 -14 25
-18 18 -26 59 -13 72 11 11 39 -28 50 -70z"/>
<path d="M7951 7822 c-14 -26 -7 -42 10 -25 6 6 9 19 7 29 -3 17 -5 17 -17 -4z"/>
<path d="M12177 7764 c-4 -4 -7 -14 -7 -22 0 -9 -8 -24 -17 -34 -9 -11 -18
-24 -20 -31 -15 -65 -15 -68 12 -107 15 -22 44 -50 64 -62 20 -12 51 -35 69
-50 43 -37 76 -34 80 6 2 18 0 26 -7 21 -6 -3 -11 -1 -11 6 0 9 -3 9 -14 0
-11 -9 -18 -8 -30 4 -18 18 -12 34 24 73 20 21 20 35 2 38 -10 1 -45 14 -62
23 -8 5 -17 17 -19 27 -1 10 -9 26 -16 34 -7 8 -15 28 -17 44 -3 29 -18 43
-31 30z"/>
<path d="M4760 7558 c0 -24 9 -61 19 -83 l18 -40 6 35 c9 55 -5 124 -25 128
-15 3 -18 -4 -18 -40z"/>
<path d="M4264 7498 c-5 -7 -28 -26 -52 -42 -49 -34 -57 -45 -66 -101 -9 -54
-26 -96 -37 -89 -5 3 -20 -6 -33 -19 -20 -20 -25 -21 -33 -8 -17 26 -73 -33
-118 -123 -21 -43 -48 -90 -59 -104 -15 -18 -21 -41 -21 -75 0 -26 -6 -51 -12
-55 -7 -4 -24 -33 -37 -65 -19 -41 -31 -57 -45 -57 -26 0 -38 -20 -19 -34 8
-6 13 -17 10 -24 -2 -7 1 -18 7 -25 13 -16 33 -99 37 -156 2 -24 10 -52 19
-62 12 -12 15 -27 10 -47 -5 -24 -1 -32 20 -46 14 -9 25 -23 25 -31 0 -8 4
-15 9 -15 19 0 69 -56 111 -123 23 -37 49 -73 58 -80 27 -20 75 -88 100 -142
60 -126 67 -157 86 -350 3 -28 12 -64 20 -80 9 -17 16 -36 16 -42 0 -7 9 -13
20 -13 11 0 20 7 20 15 0 8 5 15 10 15 6 0 10 -4 10 -10 0 -5 7 -10 16 -10 19
0 44 -58 44 -105 0 -23 5 -35 13 -35 9 0 14 -13 15 -36 1 -20 6 -41 11 -48 5
-6 12 -26 16 -43 3 -18 11 -33 16 -33 5 0 9 -6 9 -13 0 -19 66 -43 115 -42
l39 0 14 95 c8 52 20 109 27 125 7 17 10 50 7 74 -2 23 0 53 6 65 6 11 13 39
16 61 30 240 38 299 51 358 9 37 13 73 9 78 -3 5 0 16 6 24 7 8 10 20 8 27 -5
13 -38 -47 -38 -69 0 -7 -5 -13 -11 -13 -7 0 -9 13 -5 38 27 156 26 183 -5
175 -10 -3 -16 -9 -13 -14 3 -5 -6 -9 -20 -9 -13 0 -26 6 -28 12 -3 9 -9 8
-22 -5 -10 -9 -21 -17 -26 -17 -4 0 -15 -16 -24 -35 -9 -19 -19 -35 -22 -35
-3 0 -2 5 2 11 4 7 1 10 -7 7 -11 -4 -13 -24 -11 -87 1 -44 0 -81 -2 -81 -15
0 -76 44 -76 55 0 26 -30 25 -40 -1 -9 -22 -13 -24 -25 -14 -10 8 -13 21 -8
38 5 22 3 24 -15 20 -20 -6 -20 -3 -18 156 2 129 6 167 19 193 9 18 17 52 17
77 0 25 5 57 11 73 6 15 17 107 25 203 8 96 17 190 20 208 4 18 -1 74 -10 125
-9 50 -16 108 -16 127 1 49 -11 110 -21 110 -5 0 -9 8 -9 18 0 19 -18 42 -32
42 -4 0 -8 -9 -8 -19 0 -20 -17 -37 -27 -28 -3 3 -10 45 -15 94 -10 90 -19
115 -34 91z m47 -265 c-9 -16 -10 -15 -11 9 0 14 3 35 8 45 6 15 8 14 10 -9 2
-15 -1 -35 -7 -45z m-17 -28 c3 -8 1 -15 -4 -15 -6 0 -10 7 -10 15 0 8 2 15 4
15 2 0 6 -7 10 -15z m26 -1657 c0 -10 -4 -18 -8 -18 -14 0 -32 23 -32 42 0 16
3 16 20 6 11 -7 20 -21 20 -30z"/>
<path d="M7816 7270 c5 -95 8 -108 33 -140 30 -37 61 -51 61 -27 0 8 -9 26
-20 40 -24 31 -24 29 -1 55 14 17 17 33 13 74 -6 65 -17 80 -53 74 -20 -3 -29
1 -33 12 -3 10 -3 -30 0 -88z"/>
<path d="M7720 7347 c0 -23 31 -78 41 -71 11 7 0 54 -17 71 -16 17 -24 16 -24
0z"/>
<path d="M6734 7283 c-10 -7 -28 -13 -41 -13 -24 0 -31 -22 -14 -49 24 -38
-21 -55 -57 -21 -12 11 -25 20 -30 20 -12 0 -32 -45 -32 -71 0 -11 -7 -28 -16
-37 -15 -15 -15 -17 5 -30 27 -19 27 -61 -1 -97 -20 -26 -20 -29 -5 -53 20
-34 37 -40 37 -13 0 12 4 21 8 21 10 0 52 -47 52 -58 0 -11 67 -62 82 -62 13
0 48 34 48 46 0 3 11 15 25 26 18 14 25 29 25 54 0 25 4 34 17 34 13 0 7 10
-20 36 -20 20 -37 40 -37 44 0 5 -9 11 -19 15 -19 6 -36 33 -26 43 3 3 15 -4
28 -15 55 -49 168 -105 188 -92 11 7 11 9 1 9 -9 0 -10 5 -2 19 13 25 13 128
0 136 -5 3 -10 18 -10 33 0 23 -6 29 -40 40 -22 6 -51 12 -64 12 -13 0 -26 6
-29 14 -8 19 -51 25 -73 9z m23 -19 c-3 -3 -12 -4 -19 -1 -8 3 -5 6 6 6 11 1
17 -2 13 -5z"/>
<path d="M7217 7273 c13 -53 55 -133 69 -133 16 0 19 36 4 45 -5 3 -10 16 -10
27 0 23 -45 88 -61 88 -5 0 -6 -12 -2 -27z"/>
<path d="M7320 7276 c0 -14 4 -27 9 -30 4 -3 11 -18 14 -34 5 -26 74 -112 90
-112 12 0 8 70 -5 86 -7 8 -25 29 -40 45 -16 16 -28 33 -28 37 0 4 -9 13 -20
20 -18 11 -20 10 -20 -12z"/>
<path d="M12642 7248 c7 -19 66 -34 80 -20 8 8 4 14 -16 22 -37 14 -69 13 -64
-2z"/>
<path d="M7160 7229 c0 -14 5 -30 12 -37 32 -32 39 7 8 40 l-20 22 0 -25z"/>
<path d="M7000 7203 c0 -21 7 -56 14 -78 15 -43 63 -98 80 -92 18 6 18 75 2
109 -9 17 -16 39 -16 49 0 21 -36 49 -62 49 -14 0 -18 -8 -18 -37z"/>
<path d="M9025 7209 c-16 -5 -79 -9 -140 -8 -287 2 -299 0 -288 -41 4 -15 18
-17 106 -16 91 1 108 -2 150 -24 26 -14 47 -28 47 -32 0 -5 7 -8 15 -8 8 0 15
-3 15 -7 0 -18 59 -33 128 -33 87 0 115 -11 107 -43 -11 -43 103 -137 165
-137 38 0 55 28 54 87 -1 48 -6 58 -47 106 -25 30 -54 70 -63 90 -11 24 -25
38 -38 39 -27 1 -38 4 -56 11 -17 6 -62 16 -100 22 -14 2 -38 0 -55 -6z"/>
<path d="M6520 7195 c0 -8 5 -15 10 -15 6 0 10 7 10 15 0 8 -4 15 -10 15 -5 0
-10 -7 -10 -15z"/>
<path d="M8308 7189 c-25 -14 -22 -42 7 -67 26 -23 55 -29 55 -12 0 6 7 10 15
10 8 0 15 5 15 10 0 6 17 10 38 10 50 0 71 14 56 37 -9 14 -27 18 -90 20 -43
1 -87 -2 -96 -8z"/>
<path d="M8520 7170 c0 -22 8 -25 30 -10 13 9 13 11 0 20 -22 15 -30 12 -30
-10z"/>
<path d="M8180 7170 c12 -8 9 -10 -13 -10 -35 0 -48 -28 -22 -46 10 -8 43 -14
72 -14 46 0 53 3 53 20 0 13 -14 26 -42 40 -43 21 -75 27 -48 10z"/>
<path d="M5161 7145 c-1 -24 15 -52 24 -43 4 3 0 19 -9 35 -13 23 -15 24 -15
8z"/>
<path d="M7320 7141 c0 -12 5 -21 10 -21 6 0 10 6 10 14 0 8 -4 18 -10 21 -5
3 -10 -3 -10 -14z"/>
<path d="M11696 7145 c-6 -17 2 -45 14 -45 12 0 18 22 12 43 -5 21 -18 22 -26
2z"/>
<path d="M11750 7080 c0 -28 4 -40 14 -40 8 0 16 -7 18 -15 3 -14 6 -14 24 1
l21 17 -20 39 c-29 53 -57 52 -57 -2z"/>
<path d="M11684 6923 c-27 -28 -46 -81 -35 -101 18 -34 118 -63 128 -37 5 14
-49 139 -65 149 -6 3 -18 -2 -28 -11z"/>
<path d="M11895 6903 c-44 -45 -47 -87 -9 -128 l26 -28 18 31 c51 83 60 110
48 137 -16 35 -41 31 -83 -12z"/>
<path d="M6600 6868 c0 -9 5 -20 10 -23 13 -8 13 5 0 25 -8 13 -10 13 -10 -2z"/>
<path d="M11600 6719 c0 -15 26 -39 42 -39 8 0 19 -5 26 -12 9 -9 12 -9 12 0
0 7 -4 12 -9 12 -5 0 -19 11 -32 25 -26 26 -39 31 -39 14z"/>
<path d="M3680 6704 c0 -8 5 -12 10 -9 6 4 8 11 5 16 -9 14 -15 11 -15 -7z"/>
<path d="M11520 6648 c0 -20 21 -52 69 -108 12 -13 30 -43 40 -66 18 -39 56
-73 68 -61 2 3 8 21 13 40 9 41 1 57 -56 117 -24 25 -53 57 -66 73 -29 33 -68
37 -68 5z"/>
<path d="M7191 6604 c-2 -26 22 -74 46 -89 14 -10 22 -22 19 -31 -3 -8 1 -14
9 -14 7 0 15 8 17 18 4 20 -13 72 -24 72 -4 0 -8 9 -8 19 0 25 -17 36 -34 21
-11 -8 -15 -8 -19 2 -3 7 -6 8 -6 2z"/>
<path d="M7335 6538 c8 -34 21 -62 44 -90 13 -16 46 -17 73 -1 9 5 -31 64 -67
97 -40 37 -58 35 -50 -6z"/>
<path d="M7470 6550 c0 -19 31 -84 43 -92 19 -12 57 -9 57 4 0 14 -79 98 -92
98 -4 0 -8 -5 -8 -10z"/>
<path d="M5458 6433 c-5 -57 0 -82 13 -61 12 18 11 108 0 108 -5 0 -11 -21
-13 -47z"/>
<path d="M4960 6428 c0 -25 3 -29 10 -18 13 20 13 50 0 50 -5 0 -10 -15 -10
-32z"/>
<path d="M7590 6380 c6 -11 15 -20 20 -20 6 0 10 9 10 20 0 13 -7 20 -20 20
-18 0 -19 -3 -10 -20z"/>
<path d="M11802 6318 c-1 -29 -2 -64 -3 -78 -1 -29 25 -130 47 -177 7 -17 14
-36 14 -42 0 -20 32 -106 43 -113 11 -7 58 11 69 27 11 14 10 249 0 261 -5 5
-14 27 -20 49 -18 64 -82 125 -129 125 -16 0 -19 -9 -21 -52z"/>
<path d="M4917 6306 c-4 -10 -5 -21 -2 -24 9 -9 17 6 13 25 -3 17 -4 17 -11
-1z"/>
<path d="M12000 6200 c0 -19 3 -21 12 -12 9 9 9 15 0 24 -9 9 -12 7 -12 -12z"/>
<path d="M12400 6015 c0 -25 14 -31 38 -16 11 6 10 11 -3 25 -23 23 -35 20
-35 -9z"/>
<path d="M11757 5953 c2 -37 8 -72 12 -78 5 -5 11 -23 15 -38 10 -44 31 -26
34 29 5 72 -23 154 -53 154 -9 0 -11 -18 -8 -67z"/>
<path d="M12345 5895 c3 -14 7 -36 10 -50 5 -22 2 -25 -25 -25 -16 0 -30 -3
-31 -7 0 -5 -1 -25 -3 -46 -4 -49 -9 -53 -44 -28 -20 14 -32 33 -37 58 -4 21
-13 53 -20 71 -18 41 -51 43 -92 4 -24 -24 -29 -35 -25 -65 3 -26 -2 -45 -17
-66 -31 -43 -27 -79 14 -126 19 -22 35 -46 35 -54 0 -14 -4 -13 -100 8 -25 5
-49 6 -54 1 -15 -15 3 -76 30 -101 14 -13 36 -44 49 -69 13 -25 41 -64 64 -87
23 -23 41 -45 41 -48 0 -22 70 -64 130 -79 131 -31 188 -15 213 61 14 43 7
133 -13 158 -16 21 -20 53 -8 66 7 8 29 34 48 59 35 44 35 45 33 133 -3 88
-22 147 -49 147 -15 0 -94 81 -94 97 0 8 -12 13 -30 13 -27 0 -30 -3 -25 -25z"/>
<path d="M11911 5856 c-9 -11 -9 -15 1 -19 10 -3 10 -9 2 -24 -24 -39 -26 -81
-7 -107 10 -14 22 -26 26 -26 5 0 15 -7 23 -15 42 -42 61 11 22 60 -21 27 -27
68 -17 120 5 25 -32 33 -50 11z"/>
<path d="M4828 5844 c-5 -4 -8 -16 -8 -26 0 -10 -4 -18 -10 -18 -5 0 -10 -7
-10 -15 0 -8 -13 -36 -30 -62 -22 -34 -30 -59 -30 -92 0 -50 -22 -125 -33
-114 -4 3 -7 -23 -7 -58 0 -86 -29 -279 -47 -307 -11 -17 -11 -27 -2 -44 7
-12 14 -52 15 -88 6 -97 13 -132 27 -123 6 4 46 6 89 5 43 0 80 3 83 8 10 16
-19 50 -42 50 -18 0 -23 6 -23 24 0 13 7 26 15 30 10 4 15 20 15 50 0 25 4 47
9 50 4 3 12 42 15 86 4 45 16 108 27 141 13 38 18 72 14 93 -4 21 1 59 15 105
22 74 24 132 3 81 -6 -14 -25 -39 -42 -56 -18 -17 -35 -44 -40 -59 -8 -32 -31
-46 -31 -19 0 16 -1 16 -18 1 -28 -26 -32 -21 -26 31 6 53 23 102 34 102 4 0
10 17 13 38 3 20 13 62 21 92 16 54 18 109 4 94z m-52 -691 c-10 -10 -19 5
-10 18 6 11 8 11 12 0 2 -7 1 -15 -2 -18z"/>
<path d="M5557 5803 c-12 -12 -7 -43 7 -43 13 0 26 20 26 41 0 10 -23 12 -33
2z"/>
<path d="M5538 5696 c-10 -7 -18 -18 -18 -23 0 -5 -8 -17 -17 -26 -22 -20 -55
-84 -84 -162 -12 -33 -25 -68 -30 -77 -19 -37 -10 -113 22 -179 56 -117 61
-128 74 -133 22 -8 60 19 63 44 2 14 10 30 18 36 47 37 60 169 29 289 -12 44
-18 102 -18 158 1 90 -4 100 -39 73z"/>
<path d="M5148 5495 c-10 -13 -18 -30 -18 -37 -1 -7 -9 -31 -20 -53 -10 -22
-16 -43 -14 -47 3 -5 -6 -12 -19 -17 -14 -6 -28 -14 -31 -20 -12 -19 27 -201
42 -201 9 0 12 6 8 16 -7 19 3 64 15 64 5 0 9 -6 9 -14 0 -8 9 -24 20 -37 l19
-24 1 48 c0 35 -4 49 -16 54 -9 3 -19 0 -24 -6 -8 -15 -20 8 -20 40 0 15 7 19
39 19 52 0 64 16 46 65 -9 27 -11 63 -8 108 6 71 -1 81 -29 42z"/>
<path d="M7364 5502 c-12 -9 -27 -27 -33 -39 -14 -27 -15 -107 -1 -98 6 4 10
-26 11 -82 1 -84 1 -87 15 -58 l14 30 -6 -32 c-4 -26 -3 -32 9 -28 7 3 26 46
40 95 31 101 35 145 13 137 -22 -9 -26 3 -10 28 12 18 13 28 4 44 -13 25 -28
26 -56 3z m16 -153 c0 -5 -4 -9 -9 -9 -6 0 -12 -15 -14 -32 -3 -26 -4 -22 -5
14 -2 38 1 46 13 42 8 -4 15 -10 15 -15z"/>
<path d="M5087 5473 c-4 -3 -7 -11 -7 -17 0 -6 5 -5 12 2 6 6 9 14 7 17 -3 3
-9 2 -12 -2z"/>
<path d="M4941 5423 c-5 -21 -12 -67 -15 -103 -4 -36 -14 -88 -22 -117 -16
-50 -16 -52 10 -107 15 -31 31 -56 36 -56 6 0 10 -7 10 -15 0 -8 9 -15 21 -15
19 0 20 5 18 98 -1 53 2 122 6 153 7 51 5 58 -17 80 -19 20 -23 32 -20 65 5
54 -14 66 -27 17z"/>
<path d="M1883 5397 c-25 -5 -43 -16 -43 -23 0 -8 -3 -14 -8 -14 -11 0 -72
-96 -72 -114 0 -9 -4 -16 -9 -16 -5 0 -17 -17 -26 -37 -10 -21 -24 -41 -31
-46 -7 -4 -20 -28 -30 -55 -10 -26 -21 -49 -24 -52 -10 -7 -57 -88 -76 -130
-9 -19 -22 -48 -30 -63 -8 -17 -14 -59 -14 -104 0 -82 11 -103 54 -103 16 0
26 -6 26 -15 0 -8 9 -15 19 -15 11 0 23 -5 26 -10 4 -6 11 -7 17 -4 6 4 13 3
17 -2 11 -16 50 -34 75 -34 13 0 37 -7 52 -15 16 -8 52 -15 79 -15 41 0 56 6
83 29 17 16 32 32 32 35 0 4 9 16 20 28 10 11 22 34 25 49 4 16 13 36 21 43 8
8 16 27 17 43 4 28 6 36 32 103 36 90 47 190 25 230 -8 14 -15 31 -16 39 -2 8
-12 27 -23 42 -12 16 -21 35 -21 44 0 24 -49 115 -65 122 -8 3 -15 16 -15 29
0 17 -6 24 -19 24 -11 0 -23 5 -26 10 -7 12 -15 11 -72 -3z"/>
<path d="M7501 5374 c0 -11 3 -14 6 -6 3 7 2 16 -1 19 -3 4 -6 -2 -5 -13z"/>
<path d="M4117 5353 c-2 -5 -10 -32 -17 -61 -15 -65 2 -174 32 -204 19 -19 20
-19 32 -1 25 37 29 191 6 241 -14 29 -43 43 -53 25z"/>
<path d="M4288 5308 c2 -29 10 -62 16 -73 7 -11 23 -52 35 -92 23 -70 46 -97
63 -71 4 7 8 21 8 30 0 9 5 20 10 23 13 8 13 65 0 85 -5 8 -10 11 -10 6 0 -20
-29 30 -30 51 0 23 -26 43 -46 36 -6 -2 -14 10 -17 27 -4 16 -13 30 -20 30
-11 0 -13 -12 -9 -52z"/>
<path d="M7497 5344 c-14 -24 -35 -114 -26 -114 5 0 12 7 15 15 4 9 13 14 22
13 19 -4 33 48 21 78 -5 13 -8 14 -8 4 -1 -12 -3 -13 -10 -1 -5 7 -11 9 -14 5z"/>
<path d="M5626 5205 c-3 -9 -6 -30 -6 -45 0 -16 -4 -32 -10 -35 -5 -3 -10 -1
-10 4 0 14 -30 14 -31 1 -1 -5 -2 -13 -4 -17 -1 -5 -5 -21 -10 -36 -6 -22 -3
-31 11 -42 10 -7 22 -11 26 -9 5 3 8 -2 8 -11 0 -9 4 -14 9 -10 16 9 19 -23
20 -170 1 -155 17 -230 57 -268 13 -12 24 -32 24 -44 0 -36 17 -70 38 -76 16
-4 23 2 33 27 7 17 21 43 31 58 16 24 17 31 6 50 -10 17 -13 83 -13 255 0 159
-4 236 -11 243 -9 9 -14 9 -18 1 -4 -6 -16 -11 -26 -11 -10 0 -23 -6 -27 -12
-19 -31 -41 -40 -61 -27 -19 12 -19 15 -5 42 12 24 13 34 3 52 -6 12 -10 37
-8 55 3 35 -15 53 -26 25z m50 -261 c-3 -9 -6 -27 -6 -40 0 -15 -6 -24 -15
-24 -10 0 -15 10 -15 33 0 37 6 47 28 47 9 0 12 -6 8 -16z"/>
<path d="M7441 5184 c0 -11 3 -14 6 -6 3 7 2 16 -1 19 -3 4 -6 -2 -5 -13z"/>
<path d="M9510 5183 c0 -12 10 -31 22 -43 18 -17 19 -20 5 -20 -13 0 -17 -9
-17 -40 0 -30 -4 -40 -16 -40 -24 0 -15 -84 10 -88 11 -3 16 0 12 7 -4 6 0 11
9 11 9 0 29 6 44 14 27 14 28 17 23 73 -4 52 -9 63 -48 103 -38 39 -44 42 -44
23z"/>
<path d="M9690 5185 c-7 -8 -18 -15 -26 -15 -20 0 -42 -38 -36 -65 3 -20 10
-25 34 -25 49 0 81 54 62 104 -8 20 -18 20 -34 1z"/>
<path d="M5760 5130 c0 -5 5 -10 11 -10 5 0 7 5 4 10 -3 6 -8 10 -11 10 -2 0
-4 -4 -4 -10z"/>
<path d="M5170 5050 c0 -5 5 -10 11 -10 5 0 7 5 4 10 -3 6 -8 10 -11 10 -2 0
-4 -4 -4 -10z"/>
<path d="M7216 5038 c-3 -13 -7 -32 -9 -43 -4 -18 -5 -18 -6 3 0 12 -3 22 -5
22 -2 0 -20 -16 -39 -35 -39 -39 -59 -105 -32 -105 10 0 15 -10 15 -34 0 -19
5 -38 10 -41 6 -4 9 -14 6 -23 -5 -16 24 -62 38 -62 3 0 6 29 6 65 0 36 4 65
8 65 5 0 9 39 11 88 1 48 4 95 7 105 3 9 3 17 0 17 -3 0 -8 -10 -10 -22z"/>
<path d="M7410 4985 c-7 -8 -16 -12 -21 -9 -5 3 -9 0 -9 -5 0 -6 -5 -10 -11
-8 -5 1 -16 -16 -24 -37 -7 -21 -18 -42 -23 -45 -19 -12 -25 -59 -23 -174 2
-105 5 -125 32 -187 18 -43 29 -86 29 -115 0 -44 2 -47 38 -62 20 -9 31 -18
25 -20 -15 -5 -17 -33 -3 -33 10 0 14 18 11 57 -3 38 18 35 45 -7 15 -22 32
-40 38 -40 6 0 22 -3 35 -7 23 -6 24 -4 18 31 -7 42 -1 66 17 66 9 0 13 39 15
138 2 116 -1 148 -17 198 -11 32 -23 75 -26 94 -21 110 -28 131 -40 115 -9
-13 -16 -9 -45 25 -38 44 -43 47 -61 25z m6 -579 c14 -15 19 -36 8 -36 -4 0
-13 8 -20 18 -24 31 -15 44 12 18z"/>
<path d="M5884 4934 c-4 -22 -2 -40 5 -47 8 -8 11 1 11 36 0 56 -7 61 -16 11z"/>
<path d="M5910 4943 c0 -15 2 -16 10 -3 8 13 10 13 14 0 3 -8 6 -24 8 -34 2
-11 9 -21 17 -24 10 -3 12 0 8 12 -4 10 -7 29 -7 42 0 19 -5 24 -25 24 -17 0
-25 -5 -25 -17z"/>
<path d="M7630 4872 c-8 -26 -13 -51 -11 -57 2 -5 4 -32 4 -58 0 -55 16 -59
32 -9 5 18 13 32 17 32 4 0 8 14 8 31 0 23 -4 30 -14 26 -10 -4 -18 2 -22 16
-4 12 -2 23 5 25 13 4 15 28 3 36 -4 2 -14 -16 -22 -42z"/>
<path d="M860 4906 c0 -2 8 -10 18 -17 15 -13 16 -12 3 4 -13 16 -21 21 -21
13z"/>
<path d="M4886 4865 c-7 -37 8 -65 36 -65 21 0 8 94 -13 98 -12 2 -18 -7 -23
-33z"/>
<path d="M6925 4880 c3 -5 13 -10 21 -10 8 0 14 5 14 10 0 6 -9 10 -21 10 -11
0 -17 -4 -14 -10z"/>
<path d="M6920 4847 c0 -11 -9 -32 -21 -48 -17 -24 -18 -33 -9 -44 9 -11 9
-22 1 -47 -9 -25 -8 -35 3 -46 25 -25 37 -4 34 56 -1 32 1 63 5 70 5 7 4 12
-2 12 -6 0 -11 5 -11 11 0 6 9 8 20 4 16 -5 20 -2 20 15 0 13 -4 19 -11 14 -6
-3 -15 0 -20 7 -7 11 -9 10 -9 -4z"/>
<path d="M5920 4792 c0 -26 -4 -41 -10 -37 -5 3 -10 20 -10 38 0 29 -1 30 -17
14 -12 -12 -18 -40 -21 -107 -3 -49 -8 -90 -13 -90 -5 0 -9 -21 -9 -46 0 -69
26 -41 34 37 9 72 19 102 46 131 21 23 26 63 10 88 -7 11 -10 3 -10 -28z"/>
<path d="M7006 4798 c-2 -7 -9 -31 -15 -53 -6 -23 -20 -51 -32 -64 -20 -21
-21 -26 -10 -82 15 -74 61 -140 114 -164 21 -9 41 -23 43 -30 4 -8 14 -4 35
14 28 25 29 28 29 119 0 79 -4 100 -25 143 -14 27 -36 54 -48 58 -12 5 -33 23
-46 40 -26 33 -39 39 -45 19z"/>
<path d="M9612 4713 c9 -2 24 -15 32 -29 27 -40 70 -26 44 16 -10 15 -23 20
-53 19 -22 -1 -32 -3 -23 -6z"/>
<path d="M7247 4667 c-4 -10 -3 -26 2 -34 11 -21 19 -4 11 27 -5 22 -7 23 -13
7z"/>
<path d="M6868 4644 c-13 -12 -8 -68 7 -88 12 -15 17 -17 29 -7 11 10 12 19 4
42 -5 16 -14 29 -18 29 -5 0 -10 7 -12 16 -2 9 -6 12 -10 8z"/>
<path d="M1100 4600 c0 -22 5 -40 10 -40 6 0 10 18 10 40 0 22 -4 40 -10 40
-5 0 -10 -18 -10 -40z"/>
<path d="M4912 4598 c-7 -7 -12 -18 -12 -25 0 -7 -6 -13 -14 -13 -24 0 -46
-40 -39 -72 3 -16 0 -47 -7 -68 -10 -31 -10 -54 -1 -115 10 -60 10 -87 0 -128
-14 -59 -23 -69 -56 -56 -25 9 -81 2 -100 -14 -7 -5 -13 -20 -13 -32 0 -12 -7
-28 -15 -35 -8 -7 -15 -19 -15 -26 0 -10 -13 -14 -40 -14 -27 0 -40 4 -40 14
0 7 -7 27 -15 42 -19 36 -19 63 0 88 8 11 15 30 15 43 0 13 5 32 12 43 12 19
1 55 -27 86 -17 19 -65 -4 -65 -31 0 -53 -136 -111 -215 -91 -22 6 -24 9 -15
26 8 14 8 20 0 20 -6 0 -10 6 -9 13 4 31 -1 36 -38 30 -21 -3 -50 -14 -64 -24
-14 -10 -32 -19 -40 -21 -8 -2 -16 -6 -19 -9 -3 -3 -23 -12 -45 -21 -53 -20
-75 -61 -53 -98 8 -14 16 -56 17 -94 2 -66 15 -96 40 -96 6 0 11 -3 11 -7 0
-5 15 -24 33 -43 17 -20 42 -50 55 -68 12 -17 31 -44 42 -60 11 -15 22 -37 24
-49 3 -12 10 -32 17 -44 6 -13 14 -38 16 -58 3 -19 11 -41 19 -48 8 -8 14 -23
14 -32 0 -10 7 -24 15 -31 8 -7 15 -19 15 -26 0 -8 8 -14 17 -14 9 0 27 -10
39 -21 14 -13 41 -23 71 -27 26 -2 52 -11 56 -18 4 -8 20 -14 35 -14 16 0 32
-4 38 -10 5 -5 31 -13 57 -16 40 -6 51 -4 66 13 18 19 18 21 -6 52 -14 18 -31
30 -39 27 -7 -3 -15 0 -17 7 -3 9 -9 9 -26 0 -25 -16 -57 -17 -66 -3 -3 6 -2
10 3 10 5 0 15 12 23 28 8 15 18 31 24 35 6 6 6 10 -2 14 -35 14 22 107 79
130 21 8 38 19 38 24 0 5 7 9 15 9 10 0 15 10 15 28 0 44 12 52 74 54 33 1 61
7 67 15 7 7 17 13 23 13 15 0 53 41 87 92 22 34 25 36 37 21 6 -9 12 -27 12
-39 0 -16 7 -24 23 -26 18 -2 22 -9 20 -33 -3 -36 22 -65 55 -65 32 0 93 21
110 38 7 6 24 12 36 12 31 0 118 30 139 48 13 12 17 31 17 94 0 45 -4 78 -10
78 -5 0 -10 13 -10 29 0 23 -15 45 -62 94 -35 35 -76 71 -93 78 -36 17 -46 49
-16 49 11 0 22 4 25 8 5 9 -60 82 -74 82 -4 0 -11 11 -14 24 -6 24 -180 206
-197 206 -5 0 -9 7 -9 15 0 18 -31 20 -48 3z m248 -262 c0 -3 -4 -8 -10 -11
-5 -3 -10 -1 -10 4 0 6 5 11 10 11 6 0 10 -2 10 -4z"/>
<path d="M7935 4584 c-17 -13 -18 -16 -5 -24 11 -7 17 -4 23 12 10 27 6 30
-18 12z"/>
<path d="M9588 4580 c-19 -16 -20 -19 -5 -20 19 0 24 -36 6 -42 -19 -6 3 -37
29 -40 77 -9 111 12 77 46 -8 8 -15 18 -15 22 0 7 -24 28 -52 44 -12 7 -22 4
-40 -10z"/>
<path d="M7225 4528 c-4 -18 -11 -47 -17 -64 -7 -20 -8 -44 -2 -70 8 -33 14
-39 37 -40 28 -1 51 -16 53 -35 1 -5 2 -12 3 -16 0 -3 10 4 21 17 19 22 28 80
12 80 -8 0 -27 50 -44 118 -9 34 -16 42 -34 42 -17 0 -24 -7 -29 -32z"/>
<path d="M7679 4543 c-4 -44 -4 -136 -1 -120 2 9 10 17 18 17 10 0 13 9 10 33
-2 17 -4 44 -5 60 -1 29 -20 38 -22 10z"/>
<path d="M7977 4496 c-3 -6 0 -22 5 -36 7 -20 11 -22 18 -10 15 23 12 57 -5
57 -8 0 -16 -5 -18 -11z"/>
<path d="M9550 4474 c0 -11 21 -44 28 -44 4 0 8 11 8 25 2 18 -3 25 -17 25
-10 0 -19 -3 -19 -6z"/>
<path d="M9672 4304 c-8 -8 -11 -23 -7 -32 4 -11 8 -13 13 -5 4 6 16 12 27 14
11 3 21 12 23 22 4 22 -37 23 -56 1z"/>
<path d="M5475 4270 c-7 -12 2 -30 16 -30 5 0 9 9 9 20 0 21 -15 27 -25 10z"/>
<path d="M5507 4101 c-3 -14 0 -21 9 -21 16 0 18 9 5 28 -6 10 -10 9 -14 -7z"/>
<path d="M5600 4018 c0 -16 19 -38 33 -38 4 0 7 10 5 22 -3 25 -38 39 -38 16z"/>
<path d="M0 1945 l0 -1945 680 0 680 0 0 80 0 80 40 0 40 0 0 40 0 40 -55 0
-55 0 0 80 c0 47 -4 80 -10 80 -5 0 -10 18 -10 40 0 27 -4 40 -12 39 -46 -6
-48 -2 -48 81 0 44 -4 80 -10 80 -5 0 -11 37 -13 83 l-3 82 -2 -82 c-3 -108
-22 -110 -22 -3 0 85 1 83 -55 82 -16 0 -24 2 -18 4 7 3 13 21 13 40 0 31 3
34 30 34 20 0 30 5 30 15 0 9 -10 15 -26 15 -39 0 -56 25 -64 93 -4 34 -8 56
-9 50 0 -7 -5 -13 -11 -13 -6 0 -10 40 -10 101 0 64 -4 98 -10 94 -6 -4 -10 5
-10 19 0 19 5 26 20 26 16 0 20 7 20 30 0 17 -4 30 -10 30 -5 0 -10 9 -10 20
0 11 4 20 9 20 6 0 9 27 9 61 -1 54 -3 60 -19 56 -20 -5 -26 7 -9 18 5 3 10
24 10 46 0 36 -7 44 -32 40 -5 0 -8 24 -8 55 0 43 -3 55 -14 51 -7 -3 -20 3
-29 14 -19 21 -37 25 -37 8 0 -8 -5 -7 -15 1 -11 9 -12 15 -5 20 7 5 2 18 -15
38 -29 35 -45 41 -45 17 0 -11 -11 -15 -39 -15 -22 0 -41 -5 -43 -10 -4 -14
-206 -24 -311 -15 -75 6 -87 9 -87 25 0 15 -9 20 -42 23 l-43 4 43 1 c23 1 42
7 42 13 0 6 -18 10 -42 9 -72 -3 -81 -1 -74 15 3 8 0 14 -7 12 -7 -1 -11 3
-10 10 2 7 -3 10 -11 7 -19 -7 -63 36 -47 45 7 5 -8 25 -39 55 -28 26 -47 52
-44 57 3 5 2 9 -3 8 -13 -3 -43 12 -43 22 0 5 9 9 21 9 12 0 19 5 16 13 -2 6
-11 11 -21 9 -14 -2 -16 8 -16 68 0 40 -4 70 -10 70 -5 0 -10 18 -10 40 0 22
-4 40 -10 40 -5 0 -10 18 -10 40 0 22 5 40 10 40 6 0 10 18 10 40 0 22 5 40
10 40 6 0 10 11 10 23 0 15 15 37 40 60 22 20 40 45 40 56 0 14 6 21 19 21 11
0 22 4 25 9 4 5 31 17 61 26 31 10 55 24 55 31 0 11 19 14 80 14 64 0 80 -3
80 -15 0 -10 10 -15 31 -15 36 0 129 -31 129 -42 0 -5 16 -8 35 -8 19 0 37 -6
42 -15 5 -7 34 -21 65 -29 31 -8 66 -19 77 -25 11 -6 38 -11 60 -11 22 0 41
-5 44 -12 3 -10 7 -10 18 -1 8 7 33 13 54 15 22 1 46 8 53 15 8 7 18 11 23 8
5 -4 9 1 9 10 0 9 4 14 8 11 5 -3 26 13 46 34 21 22 41 38 45 35 12 -7 111
118 111 141 0 6 7 14 15 18 8 3 15 15 15 26 0 11 5 20 10 20 6 0 10 18 10 40
0 22 -4 40 -10 40 -5 0 -10 16 -10 35 0 20 -5 35 -12 35 -6 0 -9 3 -5 6 8 8
-47 54 -64 54 -8 0 -24 11 -36 24 -13 13 -35 26 -51 29 -15 3 -40 17 -55 31
-16 14 -35 26 -44 26 -31 0 -148 52 -175 78 -15 14 -36 26 -45 27 -10 1 -29 5
-42 9 -23 8 -32 14 -64 42 -7 5 -41 25 -77 43 -36 18 -76 43 -90 55 -14 12
-38 28 -53 34 -15 7 -25 17 -22 22 3 6 -5 10 -19 10 -13 0 -26 4 -28 8 -1 4
-20 18 -40 31 -21 12 -38 27 -38 32 0 5 -6 9 -13 9 -8 0 -22 9 -32 20 -10 11
-26 20 -37 20 -10 0 -27 9 -38 20 -11 11 -24 20 -28 20 -5 0 -24 14 -42 30
-18 17 -38 30 -44 30 -13 0 -104 87 -129 124 -10 14 -22 26 -27 26 -6 0 -10
-718 -10 -1945z"/>
<path d="M4960 3824 c0 -9 7 -14 17 -12 25 5 28 28 4 28 -12 0 -21 -6 -21 -16z"/>
<path d="M6317 3687 c-17 -45 36 -108 66 -78 14 14 -6 56 -39 78 -18 12 -22
12 -27 0z"/>
<path d="M6396 3601 c-11 -18 6 -41 30 -41 29 0 32 25 5 40 -24 12 -28 12 -35
1z"/>
<path d="M6081 3513 c-1 -38 41 -75 61 -55 17 17 -6 62 -31 62 -11 0 -22 6
-24 13 -3 6 -6 -3 -6 -20z"/>
<path d="M9640 3530 c-12 -8 -9 -10 13 -10 15 0 27 5 27 10 0 13 -20 13 -40 0z"/>
<path d="M6465 3520 c4 -6 11 -8 16 -5 14 9 11 15 -7 15 -8 0 -12 -5 -9 -10z"/>
<path d="M6380 3387 c0 -9 37 -45 58 -56 31 -16 28 3 -5 34 -24 21 -53 33 -53
22z"/>
<path d="M9443 3362 c-13 -2 -23 -10 -23 -18 0 -8 -4 -12 -10 -9 -19 12 -10
-21 10 -35 11 -8 20 -22 20 -31 0 -19 38 -38 96 -46 61 -8 58 11 -13 84 -43
43 -64 58 -80 55z"/>
<path d="M6503 3314 c-6 -17 40 -64 64 -64 18 0 17 5 -9 45 -25 37 -45 45 -55
19z"/>
<path d="M6245 3280 c-14 -22 -25 -43 -25 -47 0 -5 -16 -24 -36 -43 -20 -19
-56 -61 -81 -95 -51 -68 -133 -142 -179 -161 -17 -7 -36 -20 -44 -28 -7 -9
-19 -16 -26 -16 -8 0 -14 -5 -14 -11 0 -6 -9 -24 -21 -40 -11 -16 -18 -29 -15
-29 2 0 -9 -13 -25 -29 -16 -16 -29 -38 -29 -48 0 -15 2 -16 10 -3 7 11 8 5 4
-20 -3 -19 -8 -42 -11 -50 -3 -8 -4 -50 -3 -94 1 -56 6 -83 17 -94 8 -9 25
-36 36 -61 25 -57 23 -50 32 -88 4 -19 14 -33 22 -33 8 0 29 -6 46 -14 18 -8
39 -16 49 -19 9 -3 19 -20 23 -38 4 -19 15 -33 26 -36 12 -3 19 -14 19 -29 0
-13 3 -23 8 -22 14 4 52 -27 52 -43 0 -20 77 -102 82 -87 3 8 26 9 84 2 88
-10 154 -7 154 6 0 5 -19 11 -42 13 -24 2 -6 4 40 5 63 2 82 -1 82 -12 0 -14
79 -26 180 -26 48 0 59 3 62 18 4 13 21 23 51 30 25 7 51 18 59 25 7 7 25 14
40 15 15 1 42 10 60 20 28 16 58 19 190 20 167 2 358 16 423 32 22 5 105 10
185 10 80 0 186 7 235 15 50 8 134 20 188 25 54 6 117 17 140 25 23 8 56 15
74 15 17 0 33 4 35 8 2 7 125 31 343 68 17 3 50 10 75 16 93 21 110 29 110 49
0 10 -6 19 -12 19 -30 -1 -222 -32 -338 -55 -47 -9 -121 -21 -165 -26 -44 -5
-106 -13 -138 -18 -70 -11 -240 -16 -582 -16 -304 0 -361 6 -398 40 -14 14
-32 25 -39 25 -7 0 0 11 16 25 26 23 38 25 117 25 49 0 91 5 94 10 4 6 11 7
17 4 6 -4 8 -2 5 3 -4 6 6 16 23 22 17 5 33 17 36 26 5 12 27 15 124 15 94 0
122 3 134 16 9 8 16 11 16 6 0 -12 32 -11 49 2 25 20 86 36 138 36 28 0 55 5
58 10 3 6 19 10 36 10 29 0 40 14 17 23 -8 3 -5 7 7 11 11 4 35 15 53 24 35
17 114 18 120 1 6 -15 21 -10 32 11 9 16 6 26 -17 55 -15 19 -31 35 -35 35 -4
0 -18 11 -31 24 -13 12 -27 25 -33 27 -20 9 -94 103 -94 121 0 10 -7 32 -15
48 -17 33 -11 60 14 60 26 0 41 21 41 56 0 36 14 53 24 28 10 -27 7 -54 -9
-60 -11 -5 -12 -11 -5 -24 6 -10 10 -28 10 -38 0 -23 74 -82 102 -82 10 0 18
-4 18 -10 0 -5 7 -10 15 -10 9 0 26 -6 38 -14 41 -26 75 -28 87 -6 13 23 47
26 74 5 49 -37 178 1 144 42 -6 7 -18 26 -27 43 -21 38 -126 156 -157 177 -19
12 -27 13 -39 3 -8 -7 -20 -8 -27 -3 -20 13 -139 35 -186 34 -39 0 -45 3 -64
34 -14 24 -27 35 -44 35 -17 0 -22 -4 -18 -15 4 -10 0 -15 -15 -15 -17 0 -21
6 -21 30 0 17 -4 30 -10 30 -5 0 -10 10 -10 23 0 33 -23 62 -44 54 -16 -6 -23
-62 -8 -69 10 -4 52 -92 52 -109 0 -8 9 -29 21 -48 11 -18 19 -43 17 -55 -4
-27 -41 -33 -73 -12 -13 9 -31 16 -40 16 -8 0 -15 5 -15 10 0 11 -119 70 -141
70 -8 0 -19 4 -24 9 -12 10 -137 61 -152 61 -5 0 -18 9 -28 20 -20 22 -73 27
-105 10 -13 -7 -21 -7 -25 0 -10 17 -55 12 -55 -6 0 -11 8 -15 28 -14 15 1 38
2 52 1 22 -1 23 -2 8 -17 -13 -13 -20 -14 -37 -4 -13 6 -35 8 -52 5 -17 -4
-49 0 -79 10 -28 9 -57 14 -65 11 -7 -2 -15 0 -17 5 -5 16 -144 24 -153 9 -5
-8 -7 -63 -6 -124 2 -90 -1 -117 -16 -146 -32 -62 -67 -108 -95 -125 -15 -8
-33 -21 -40 -28 -20 -19 -102 -37 -169 -37 -33 0 -80 -5 -105 -11 -60 -15 -94
-2 -87 35 4 18 1 26 -8 26 -8 0 -43 5 -78 10 -56 8 -69 14 -98 46 -38 44 -41
54 -13 54 34 0 34 26 1 61 -17 17 -31 38 -31 45 0 8 -4 14 -8 14 -10 0 -32 45
-32 65 0 8 9 15 19 15 34 0 13 38 -28 50 -69 21 -91 32 -91 45 0 26 60 34 80
10 7 -8 19 -15 26 -15 21 0 17 38 -6 52 -11 7 -20 18 -20 25 0 11 -30 33 -44
33 -3 0 -17 -18 -31 -40z m2159 -386 c20 -8 21 -34 2 -34 -17 0 -38 24 -29 33
8 8 8 8 27 1z m-1234 -536 c-1 -36 -45 -56 -60 -27 -9 16 -7 21 12 29 33 13
48 12 48 -2z"/>
<path d="M7704 3291 c-42 -11 -54 -19 -54 -40 0 -14 11 -20 42 -25 23 -4 45
-10 48 -14 8 -11 134 -72 148 -72 18 0 15 23 -8 48 -11 12 -20 35 -20 51 0 53
-63 74 -156 52z"/>
<path d="M9260 3290 c0 -11 48 -25 57 -16 9 8 3 12 -29 20 -17 4 -28 2 -28 -4z"/>
<path d="M6400 3277 c0 -8 18 -32 40 -55 22 -22 40 -44 40 -49 0 -26 119 -50
127 -26 4 11 -47 53 -64 53 -5 0 -20 14 -32 31 -32 43 -111 76 -111 46z"/>
<path d="M8486 3278 c2 -4 0 -9 -5 -12 -10 -6 -3 -46 8 -46 4 0 14 -15 24 -33
21 -38 64 -67 100 -67 14 0 28 -4 31 -9 7 -11 99 -22 223 -27 96 -3 103 -2
114 18 9 16 7 28 -7 57 -37 75 -129 124 -190 101 -20 -8 -37 -7 -68 4 -41 15
-238 27 -230 14z"/>
<path d="M8352 3239 c3 -8 13 -16 24 -18 10 -2 21 -7 24 -11 3 -5 18 -12 34
-16 l29 -7 -19 26 c-10 14 -26 25 -34 25 -8 0 -26 4 -39 8 -18 5 -23 4 -19 -7z"/>
<path d="M8980 3240 c0 -5 5 -10 10 -10 6 0 10 5 10 10 0 6 -4 10 -10 10 -5 0
-10 -4 -10 -10z"/>
<path d="M9220 3229 c-36 -3 -86 -4 -111 -1 -43 4 -46 3 -58 -26 -11 -27 -10
-34 6 -56 27 -36 82 -63 132 -65 41 -1 54 -8 65 -36 9 -25 43 17 64 80 35 104
24 115 -98 104z"/>
<path d="M5883 3202 c-30 -19 -43 -34 -43 -50 0 -18 4 -22 19 -17 11 3 22 1
26 -5 3 -5 1 -10 -4 -10 -6 0 -11 -9 -11 -20 0 -23 28 -27 63 -9 34 18 117
106 117 123 0 13 -13 16 -62 16 -51 0 -71 -5 -105 -28z"/>
<path d="M6662 3207 c-15 -18 12 -57 39 -57 25 0 25 31 1 53 -22 20 -26 21
-40 4z"/>
<path d="M9440 3145 c0 -14 5 -25 10 -25 7 0 7 -7 0 -21 -7 -11 -9 -23 -6 -27
3 -3 6 -2 6 2 0 4 10 -2 22 -14 29 -27 78 -27 78 0 0 12 -9 24 -23 29 -12 5
-29 21 -37 36 -8 14 -22 31 -32 36 -15 8 -18 6 -18 -16z"/>
<path d="M10078 3143 c7 -3 16 -2 19 1 4 3 -2 6 -13 5 -11 0 -14 -3 -6 -6z"/>
<path d="M8640 3045 c0 -10 14 -17 40 -21 22 -4 40 -10 40 -15 0 -5 20 -9 43
-9 24 0 70 -9 103 -19 32 -11 60 -18 62 -16 13 13 -12 35 -45 40 -21 3 -56 11
-78 16 -22 6 -62 13 -90 15 -27 3 -51 9 -53 15 -6 15 -22 10 -22 -6z"/>
<path d="M10080 3050 c0 -5 5 -10 11 -10 5 0 7 5 4 10 -3 6 -8 10 -11 10 -2 0
-4 -4 -4 -10z"/>
<path d="M8890 2890 c-11 -7 -5 -10 23 -10 23 0 36 4 32 10 -8 13 -35 13 -55
0z"/>
<path d="M9807 2598 c-7 -5 -2 -8 15 -8 15 0 29 4 33 9 6 11 -30 10 -48 -1z"/>
<path d="M967 1786 c-4 -10 -5 -21 -2 -24 9 -9 17 6 13 25 -3 17 -4 17 -11 -1z"/>
</g>
</svg>
